<?xml version="1.0" encoding="UTF-8"?>
<svg width="1337px" height="737px" viewBox="0 0 1337 737" version="1.1" xmlns="http://www.w3.org/2000/svg" xmlns:xlink="http://www.w3.org/1999/xlink">
    <!-- Generator: Sketch 41.2 (35397) - http://www.bohemiancoding.com/sketch -->
    <title>Group 2</title>
    <desc>Created with Sketch.</desc>
    <defs></defs>
    <g id="Holiday-Card" stroke="none" stroke-width="1" fill="none" fill-rule="evenodd" opacity="0.1">
        <g id="Oaxaca-Old-Fashioned-Copy-3" transform="translate(-52.000000, -161.000000)" fill="#FFFFFF">
            <g id="Page-1" transform="translate(52.000000, 110.000000)">
                <g id="Group-2" transform="translate(0.000000, 51.000000)">
                    <path d="M667.066187,89.2900088 C670.066822,91.452402 672.458448,95.0996169 674,99.2914825 C675.53838,95.0996169 677.930006,91.452402 680.930641,89.2900088 C678.00296,87.4291188 675.570099,84.2844091 674,80.3551429 C672.426729,84.2844091 669.99704,87.4291188 667.066187,89.2900088 M674,112 C672.931064,112 672.068302,111.114943 672.068302,110.025641 C672.068302,100.147362 666.758511,91.144415 660.931698,91.144415 C659.865934,91.144415 659,90.2625995 659,89.173298 C659,88.0807545 659.865934,87.198939 660.931698,87.198939 C666.967858,87.198939 672.068302,79.307987 672.068302,69.974359 C672.068302,68.8850575 672.931064,68 674,68 C675.065764,68 675.928526,68.8850575 675.928526,69.974359 C675.928526,79.307987 681.032142,87.198939 687.068302,87.198939 C688.134066,87.198939 689,88.0807545 689,89.173298 C689,90.2625995 688.134066,91.144415 687.068302,91.144415 C681.241489,91.144415 675.928526,100.147362 675.928526,110.025641 C675.928526,111.114943 675.065764,112 674,112" id="Fill-1"></path>
                    <path d="M1315.06619,21.2900088 C1318.06682,23.452402 1320.45845,27.0996169 1322,31.2914825 C1323.53838,27.0996169 1325.93001,23.452402 1328.93064,21.2900088 C1326.00296,19.4291188 1323.5701,16.2844091 1322,12.3551429 C1320.42673,16.2844091 1317.99704,19.4291188 1315.06619,21.2900088 M1322,44 C1320.93106,44 1320.0683,43.1149425 1320.0683,42.025641 C1320.0683,32.1473622 1314.75851,23.144415 1308.9317,23.144415 C1307.86593,23.144415 1307,22.2625995 1307,21.173298 C1307,20.0807545 1307.86593,19.198939 1308.9317,19.198939 C1314.96786,19.198939 1320.0683,11.307987 1320.0683,1.97435897 C1320.0683,0.885057471 1320.93106,0 1322,0 C1323.06576,0 1323.92853,0.885057471 1323.92853,1.97435897 C1323.92853,11.307987 1329.03214,19.198939 1335.0683,19.198939 C1336.13407,19.198939 1337,20.0807545 1337,21.173298 C1337,22.2625995 1336.13407,23.144415 1335.0683,23.144415 C1329.24149,23.144415 1323.92853,32.1473622 1323.92853,42.025641 C1323.92853,43.1149425 1323.06576,44 1322,44" id="Fill-3"></path>
                    <path d="M8.06618735,568.290009 C11.0668217,570.452402 13.4584479,574.099617 15,578.291482 C16.5383802,574.099617 18.9300063,570.452402 21.9306407,568.290009 C19.0029605,566.429119 16.5700994,563.284409 15,559.355143 C13.4267287,563.284409 10.9970395,566.429119 8.06618735,568.290009 M15,591 C13.9310636,591 13.068302,590.114943 13.068302,589.025641 C13.068302,579.147362 7.75851131,570.144415 1.93169803,570.144415 C0.865933601,570.144415 0,569.262599 0,568.173298 C0,567.080754 0.865933601,566.198939 1.93169803,566.198939 C7.9678579,566.198939 13.068302,558.307987 13.068302,548.974359 C13.068302,547.885057 13.9310636,547 15,547 C16.0657644,547 16.9285261,547.885057 16.9285261,548.974359 C16.9285261,558.307987 22.0321421,566.198939 28.068302,566.198939 C29.1340664,566.198939 30,567.080754 30,568.173298 C30,569.262599 29.1340664,570.144415 28.068302,570.144415 C22.2414887,570.144415 16.9285261,579.147362 16.9285261,589.025641 C16.9285261,590.114943 16.0657644,591 15,591" id="Fill-5"></path>
                    <path d="M380.554611,714.485214 C383.568706,716.629143 385.971061,720.245214 387.519529,724.401286 C389.06481,720.245214 391.467165,716.629143 394.481261,714.485214 C391.540447,712.640214 389.096672,709.522357 387.519529,705.626643 C385.9392,709.522357 383.498611,712.640214 380.554611,714.485214 M387.519529,737.001286 C386.445797,737.001286 385.579165,736.123786 385.579165,735.043786 C385.579165,725.249857 380.245555,716.323786 374.392603,716.323786 C373.322057,716.323786 372.452239,715.4495 372.452239,714.3695 C372.452239,713.286286 373.322057,712.412 374.392603,712.412 C380.455841,712.412 385.579165,704.588429 385.579165,695.3345 C385.579165,694.2545 386.445797,693.377 387.519529,693.377 C388.590074,693.377 389.456706,694.2545 389.456706,695.3345 C389.456706,704.588429 394.583217,712.412 400.646455,712.412 C401.717001,712.412 402.586819,713.286286 402.586819,714.3695 C402.586819,715.4495 401.717001,716.323786 400.646455,716.323786 C394.793503,716.323786 389.456706,725.249857 389.456706,735.043786 C389.456706,736.123786 388.590074,737.001286 387.519529,737.001286" id="Fill-7"></path>
                    <path d="M969.066187,515.290009 C972.066822,517.452402 974.458448,521.099617 976,525.291482 C977.53838,521.099617 979.930006,517.452402 982.930641,515.290009 C980.00296,513.429119 977.570099,510.284409 976,506.355143 C974.426729,510.284409 971.99704,513.429119 969.066187,515.290009 M976,538 C974.931064,538 974.068302,537.114943 974.068302,536.025641 C974.068302,526.147362 968.758511,517.144415 962.931698,517.144415 C961.865934,517.144415 961,516.262599 961,515.173298 C961,514.080754 961.865934,513.198939 962.931698,513.198939 C968.967858,513.198939 974.068302,505.307987 974.068302,495.974359 C974.068302,494.885057 974.931064,494 976,494 C977.065764,494 977.928526,494.885057 977.928526,495.974359 C977.928526,505.307987 983.032142,513.198939 989.068302,513.198939 C990.134066,513.198939 991,514.080754 991,515.173298 C991,516.262599 990.134066,517.144415 989.068302,517.144415 C983.241489,517.144415 977.928526,526.147362 977.928526,536.025641 C977.928526,537.114943 977.065764,538 976,538" id="Fill-10"></path>
                    <path d="M1251.06619,670.290009 C1254.06682,672.452402 1256.45845,676.099617 1258,680.291482 C1259.53838,676.099617 1261.93001,672.452402 1264.93064,670.290009 C1262.00296,668.429119 1259.5701,665.284409 1258,661.355143 C1256.42673,665.284409 1253.99704,668.429119 1251.06619,670.290009 M1258,693 C1256.93106,693 1256.0683,692.114943 1256.0683,691.025641 C1256.0683,681.147362 1250.75851,672.144415 1244.9317,672.144415 C1243.86593,672.144415 1243,671.262599 1243,670.173298 C1243,669.080754 1243.86593,668.198939 1244.9317,668.198939 C1250.96786,668.198939 1256.0683,660.307987 1256.0683,650.974359 C1256.0683,649.885057 1256.93106,649 1258,649 C1259.06576,649 1259.92853,649.885057 1259.92853,650.974359 C1259.92853,660.307987 1265.03214,668.198939 1271.0683,668.198939 C1272.13407,668.198939 1273,669.080754 1273,670.173298 C1273,671.262599 1272.13407,672.144415 1271.0683,672.144415 C1265.24149,672.144415 1259.92853,681.147362 1259.92853,691.025641 C1259.92853,692.114943 1259.06576,693 1258,693" id="Fill-15"></path>
                </g>
            </g>
        </g>
    </g>
</svg>