<?xml version="1.0" encoding="UTF-8"?>
<svg width="1337px" height="946px" viewBox="0 0 1337 946" version="1.1" xmlns="http://www.w3.org/2000/svg" xmlns:xlink="http://www.w3.org/1999/xlink">
    <!-- Generator: Sketch 41.2 (35397) - http://www.bohemiancoding.com/sketch -->
    <title>Group 2</title>
    <desc>Created with Sketch.</desc>
    <defs>
        <polygon id="path-1" points="0.452238961 44 30.586819 44 30.586819 0.377 0.452238961 0.377"></polygon>
        <polygon id="path-3" points="31.065697 0.0469333333 0.931116883 0.0469333333 0.931116883 43.9755623 31.065697 43.9755623 31.065697 0.0469333333"></polygon>
    </defs>
    <g id="MASTER" stroke="none" stroke-width="1" fill="none" fill-rule="evenodd">
        <g id="Intro" transform="translate(-52.000000, -37.000000)">
            <g id="Group-2" transform="translate(52.000000, 37.000000)">
                <g id="Page-1" opacity="0.1" transform="translate(668.500000, 402.500000) scale(1, -1) translate(-668.500000, -402.500000) ">
                    <path d="M1315.06619,98.2900088 C1318.06682,100.452402 1320.45845,104.099617 1322,108.291482 C1323.53838,104.099617 1325.93001,100.452402 1328.93064,98.2900088 C1326.00296,96.4291188 1323.5701,93.2844091 1322,89.3551429 C1320.42673,93.2844091 1317.99704,96.4291188 1315.06619,98.2900088 M1322,121 C1320.93106,121 1320.0683,120.114943 1320.0683,119.025641 C1320.0683,109.147362 1314.75851,100.144415 1308.9317,100.144415 C1307.86593,100.144415 1307,99.2625995 1307,98.173298 C1307,97.0807545 1307.86593,96.198939 1308.9317,96.198939 C1314.96786,96.198939 1320.0683,88.307987 1320.0683,78.974359 C1320.0683,77.8850575 1320.93106,77 1322,77 C1323.06576,77 1323.92853,77.8850575 1323.92853,78.974359 C1323.92853,88.307987 1329.03214,96.198939 1335.0683,96.198939 C1336.13407,96.198939 1337,97.0807545 1337,98.173298 C1337,99.2625995 1336.13407,100.144415 1335.0683,100.144415 C1329.24149,100.144415 1323.92853,109.147362 1323.92853,119.025641 C1323.92853,120.114943 1323.06576,121 1322,121" id="Fill-3" fill="#FFFFFF"></path>
                    <path d="M8.06618735,645.290009 C11.0668217,647.452402 13.4584479,651.099617 15,655.291482 C16.5383802,651.099617 18.9300063,647.452402 21.9306407,645.290009 C19.0029605,643.429119 16.5700994,640.284409 15,636.355143 C13.4267287,640.284409 10.9970395,643.429119 8.06618735,645.290009 M15,668 C13.9310636,668 13.068302,667.114943 13.068302,666.025641 C13.068302,656.147362 7.75851131,647.144415 1.93169803,647.144415 C0.865933601,647.144415 0,646.262599 0,645.173298 C0,644.080754 0.865933601,643.198939 1.93169803,643.198939 C7.9678579,643.198939 13.068302,635.307987 13.068302,625.974359 C13.068302,624.885057 13.9310636,624 15,624 C16.0657644,624 16.9285261,624.885057 16.9285261,625.974359 C16.9285261,635.307987 22.0321421,643.198939 28.068302,643.198939 C29.1340664,643.198939 30,644.080754 30,645.173298 C30,646.262599 29.1340664,647.144415 28.068302,647.144415 C22.2414887,647.144415 16.9285261,656.147362 16.9285261,666.025641 C16.9285261,667.114943 16.0657644,668 15,668" id="Fill-5" fill="#FFFFFF"></path>
                    <g id="Group-9" transform="translate(591.000000, 761.000000)">
                        <mask id="mask-2" fill="white">
                            <use xlink:href="#path-1"></use>
                        </mask>
                        <g id="Clip-8"></g>
                        <path d="M8.55461126,21.4852143 C11.5687065,23.6291429 13.9710615,27.2452143 15.519529,31.4012857 C17.0648104,27.2452143 19.4671654,23.6291429 22.4812606,21.4852143 C19.5404468,19.6402143 17.0966719,16.5223571 15.519529,12.6266429 C13.9392,16.5223571 11.4986113,19.6402143 8.55461126,21.4852143 M15.519529,44.0012857 C14.4457974,44.0012857 13.5791654,43.1237857 13.5791654,42.0437857 C13.5791654,32.2498571 8.24555498,23.3237857 2.3926026,23.3237857 C1.32205714,23.3237857 0.452238961,22.4495 0.452238961,21.3695 C0.452238961,20.2862857 1.32205714,19.412 2.3926026,19.412 C8.45584069,19.412 13.5791654,11.5884286 13.5791654,2.3345 C13.5791654,1.2545 14.4457974,0.377 15.519529,0.377 C16.5900745,0.377 17.4567065,1.2545 17.4567065,2.3345 C17.4567065,11.5884286 22.5832173,19.412 28.6464554,19.412 C29.7170009,19.412 30.586819,20.2862857 30.586819,21.3695 C30.586819,22.4495 29.7170009,23.3237857 28.6464554,23.3237857 C22.793503,23.3237857 17.4567065,32.2498571 17.4567065,42.0437857 C17.4567065,43.1237857 16.5900745,44.0012857 15.519529,44.0012857" id="Fill-7" fill="#FFFFFF" mask="url(#mask-2)"></path>
                    </g>
                    <path d="M969.066187,402.290009 C972.066822,404.452402 974.458448,408.099617 976,412.291482 C977.53838,408.099617 979.930006,404.452402 982.930641,402.290009 C980.00296,400.429119 977.570099,397.284409 976,393.355143 C974.426729,397.284409 971.99704,400.429119 969.066187,402.290009 M976,425 C974.931064,425 974.068302,424.114943 974.068302,423.025641 C974.068302,413.147362 968.758511,404.144415 962.931698,404.144415 C961.865934,404.144415 961,403.262599 961,402.173298 C961,401.080754 961.865934,400.198939 962.931698,400.198939 C968.967858,400.198939 974.068302,392.307987 974.068302,382.974359 C974.068302,381.885057 974.931064,381 976,381 C977.065764,381 977.928526,381.885057 977.928526,382.974359 C977.928526,392.307987 983.032142,400.198939 989.068302,400.198939 C990.134066,400.198939 991,401.080754 991,402.173298 C991,403.262599 990.134066,404.144415 989.068302,404.144415 C983.241489,404.144415 977.928526,413.147362 977.928526,423.025641 C977.928526,424.114943 977.065764,425 976,425" id="Fill-10" fill="#FFFFFF"></path>
                    <g id="Group-14" transform="translate(73.000000, 0.000000)">
                        <mask id="mask-4" fill="white">
                            <use xlink:href="#path-3"></use>
                        </mask>
                        <g id="Clip-13"></g>
                    </g>
                    <path d="M1251.06619,747.290009 C1254.06682,749.452402 1256.45845,753.099617 1258,757.291482 C1259.53838,753.099617 1261.93001,749.452402 1264.93064,747.290009 C1262.00296,745.429119 1259.5701,742.284409 1258,738.355143 C1256.42673,742.284409 1253.99704,745.429119 1251.06619,747.290009 M1258,770 C1256.93106,770 1256.0683,769.114943 1256.0683,768.025641 C1256.0683,758.147362 1250.75851,749.144415 1244.9317,749.144415 C1243.86593,749.144415 1243,748.262599 1243,747.173298 C1243,746.080754 1243.86593,745.198939 1244.9317,745.198939 C1250.96786,745.198939 1256.0683,737.307987 1256.0683,727.974359 C1256.0683,726.885057 1256.93106,726 1258,726 C1259.06576,726 1259.92853,726.885057 1259.92853,727.974359 C1259.92853,737.307987 1265.03214,745.198939 1271.0683,745.198939 C1272.13407,745.198939 1273,746.080754 1273,747.173298 C1273,748.262599 1272.13407,749.144415 1271.0683,749.144415 C1265.24149,749.144415 1259.92853,758.147362 1259.92853,768.025641 C1259.92853,769.114943 1259.06576,770 1258,770" id="Fill-15" fill="#FFFFFF"></path>
                </g>
                <g id="Page-1" transform="translate(197.057004, 564.805742) rotate(-345.000000) translate(-197.057004, -564.805742) translate(43.557004, 376.305742)" stroke="#FFFFFF" stroke-width="0.25" strokeLinecap="round" stroke-linejoin="round">
                    <path d="M287.999782,358.35614 C291.388996,276.533684 306.792347,-2.27373675e-13 306.792347,-2.27373675e-13 L5.68434189e-14,-2.27373675e-13 C5.68434189e-14,-2.27373675e-13 15.4033513,276.533684 18.7925651,358.35614 C19.2095158,368.472073 27.0362767,376.413554 36.6023177,376.413554 L270.19003,376.413554 C279.756071,376.413554 287.582832,368.472073 287.999782,358.35614 Z" id="Stroke-1"></path>
                    <path d="M288.430711,308.322484 L14.5362958,308.322484" id="Stroke-3"></path>
                    <path d="M305.262211,19.126705 L0.765068198,19.126705" id="Stroke-5"></path>
                    <path d="M6.12054559,113.230093 L299.906734,113.230093" id="Stroke-7"></path>
                    <polyline id="Stroke-9" points="153.01364 332.039598 153.01364 308.224305 81.8622972 151.483503"></polyline>
                    <path d="M175.965686,332.039598 L175.965686,308.322484" id="Stroke-11"></path>
                    <path d="M201.212936,332.039598 L201.212936,308.322484" id="Stroke-13"></path>
                    <path d="M224.93005,332.039598 L224.93005,308.322484" id="Stroke-15"></path>
                    <path d="M248.647164,332.039598 L248.647164,308.322484" id="Stroke-17"></path>
                    <path d="M273.129347,332.039598 L273.129347,308.322484" id="Stroke-19"></path>
                    <path d="M129.296525,332.039598 L129.296525,308.322484" id="Stroke-21"></path>
                    <path d="M104.814343,332.039598 L104.814343,308.322484" id="Stroke-23"></path>
                    <path d="M81.8622972,332.039598 L81.8622972,308.322484" id="Stroke-25"></path>
                    <path d="M57.3801149,332.039598 L57.3801149,308.322484" id="Stroke-27"></path>
                    <path d="M33.6630007,332.039598 L33.6630007,308.322484" id="Stroke-29"></path>
                    <path d="M108.639684,113.230093 L197.387595,19.126705" id="Stroke-31"></path>
                    <path d="M108.639684,19.126705 L197.387595,113.230093" id="Stroke-33"></path>
                    <path d="M198.152663,113.230093 L286.900574,19.126705" id="Stroke-35"></path>
                    <path d="M198.152663,19.126705 L286.900574,113.230093" id="Stroke-37"></path>
                    <path d="M19.8917732,113.230093 L108.639684,19.126705" id="Stroke-39"></path>
                    <path d="M19.8917732,19.126705 L108.639684,113.230093" id="Stroke-41"></path>
                    <path d="M286.900574,112.465025 L300.671802,97.9287294" id="Stroke-43"></path>
                    <path d="M286.900574,19.126705 L304.497143,38.2534099" id="Stroke-45"></path>
                    <path d="M2.29520459,38.2534099 L19.8917732,19.126705" id="Stroke-47"></path>
                    <path d="M19.8917732,112.465025 L6.12054559,97.9287294" id="Stroke-49"></path>
                    <path d="M192.032118,65.4133309 C195.40998,65.4133309 198.149736,69.6941912 198.149736,74.9766834 C198.149736,69.6941912 200.889493,65.4133309 204.273209,65.4133309 C200.889493,65.4133309 198.149736,61.1324707 198.149736,55.8499785 C198.149736,61.1324707 195.40998,65.4133309 192.032118,65.4133309 Z" id="Stroke-51"></path>
                    <path d="M280.780029,65.4133309 C284.157891,65.4133309 286.897647,69.6941912 286.897647,74.9766834 C286.897647,69.6941912 289.637404,65.4133309 293.02112,65.4133309 C289.637404,65.4133309 286.897647,61.1324707 286.897647,55.8499785 C286.897647,61.1324707 284.157891,65.4133309 280.780029,65.4133309 Z" id="Stroke-53"></path>
                    <path d="M101.75407,65.4133309 C105.131932,65.4133309 107.871689,69.6941912 107.871689,74.9766834 C107.871689,69.6941912 110.611445,65.4133309 113.995162,65.4133309 C110.611445,65.4133309 107.871689,61.1324707 107.871689,55.8499785 C107.871689,61.1324707 105.131932,65.4133309 101.75407,65.4133309 Z" id="Stroke-55"></path>
                    <path d="M13.0061594,65.4133309 C16.3840214,65.4133309 19.1237779,69.6941912 19.1237779,74.9766834 C19.1237779,69.6941912 21.8635343,65.4133309 25.2472505,65.4133309 C21.8635343,65.4133309 19.1237779,61.1324707 19.1237779,55.8499785 C19.1237779,61.1324707 16.3840214,65.4133309 13.0061594,65.4133309 Z" id="Stroke-57"></path>
                    <path d="M154.543776,309.087552 L154.543776,188.971845" id="Stroke-59"></path>
                    <path d="M154.543776,309.85262 L242.526619,236.406073" id="Stroke-61"></path>
                    <path d="M152.248571,309.85262 L64.2657287,236.406073" id="Stroke-63"></path>
                    <path d="M225.695118,153.778708 L154.543776,310.617688" id="Stroke-65"></path>
                    <path d="M306.792347,-2.27373675e-13 L5.68434189e-14,-2.27373675e-13" id="Stroke-67"></path>
                </g>
                <g id="Page-1-Copy" transform="translate(611.913753, 754.718592) rotate(-6.000000) translate(-611.913753, -754.718592) translate(456.913753, 575.218592)" stroke="#FFFFFF" stroke-width="0.25" strokeLinecap="round" stroke-linejoin="round">
                    <path d="M291.01095,341.777955 C294.4356,263.740749 310,0 310,0 L0,0 C0,0 15.5644003,263.740749 18.9890498,341.777955 C19.41036,351.425907 27.3189531,359 36.9850115,359 L273.014989,359 C282.681047,359 290.58964,351.425907 291.01095,341.777955 Z" id="Stroke-1"></path>
                    <path d="M292,294 L15,294" id="Stroke-3"></path>
                    <path d="M309,18 L1,18" id="Stroke-5"></path>
                    <path d="M6,108 L303,108" id="Stroke-7"></path>
                    <polyline id="Stroke-9" points="155 317 155 294.313253 83 145"></polyline>
                    <path d="M178,317 L178,294" id="Stroke-11"></path>
                    <path d="M203,317 L203,294" id="Stroke-13"></path>
                    <path d="M227,317 L227,294" id="Stroke-15"></path>
                    <path d="M251,317 L251,294" id="Stroke-17"></path>
                    <path d="M276,317 L276,294" id="Stroke-19"></path>
                    <path d="M131,317 L131,294" id="Stroke-21"></path>
                    <path d="M106,317 L106,294" id="Stroke-23"></path>
                    <path d="M83,317 L83,294" id="Stroke-25"></path>
                    <path d="M58,317 L58,294" id="Stroke-27"></path>
                    <path d="M34,317 L34,294" id="Stroke-29"></path>
                    <path d="M110,108 L200,18" id="Stroke-31"></path>
                    <path d="M110,18 L200,108" id="Stroke-33"></path>
                    <path d="M200,108 L290,18" id="Stroke-35"></path>
                    <path d="M200,18 L290,108" id="Stroke-37"></path>
                    <path d="M20,108 L110,18" id="Stroke-39"></path>
                    <path d="M20,18 L110,108" id="Stroke-41"></path>
                    <path d="M290,108 L304,94" id="Stroke-43"></path>
                    <path d="M290,18 L308,36" id="Stroke-45"></path>
                    <path d="M2,36 L20,18" id="Stroke-47"></path>
                    <path d="M20,108 L6,94" id="Stroke-49"></path>
                    <path d="M194,62 C197.311334,62 199.997131,66.0286858 199.997131,71 C199.997131,66.0286858 202.682927,62 206,62 C202.682927,62 199.997131,57.9713142 199.997131,53 C199.997131,57.9713142 197.311334,62 194,62 Z" id="Stroke-51"></path>
                    <path d="M284,62 C287.311334,62 289.997131,66.0286858 289.997131,71 C289.997131,66.0286858 292.682927,62 296,62 C292.682927,62 289.997131,57.9713142 289.997131,53 C289.997131,57.9713142 287.311334,62 284,62 Z" id="Stroke-53"></path>
                    <path d="M103,62 C106.311334,62 108.997131,66.0286858 108.997131,71 C108.997131,66.0286858 111.682927,62 115,62 C111.682927,62 108.997131,57.9713142 108.997131,53 C108.997131,57.9713142 106.311334,62 103,62 Z" id="Stroke-55"></path>
                    <path d="M13,62 C16.3113343,62 18.9971306,66.0286858 18.9971306,71 C18.9971306,66.0286858 21.6829268,62 25,62 C21.6829268,62 18.9971306,57.9713142 18.9971306,53 C18.9971306,57.9713142 16.3113343,62 13,62 Z" id="Stroke-57"></path>
                    <path d="M156,294 L156,180" id="Stroke-59"></path>
                    <path d="M156,296 L245,226" id="Stroke-61"></path>
                    <path d="M154,296 L65,226" id="Stroke-63"></path>
                    <path d="M228,146 L156,295" id="Stroke-65"></path>
                    <path d="M310,0 L0,0" id="Stroke-67"></path>
                </g>
                <g id="Page-1-Copy-2" transform="translate(1096.466097, 701.679300) rotate(-8.000000) translate(-1096.466097, -701.679300) translate(906.466097, 481.679300)" stroke="#FFFFFF" stroke-width="0.25" strokeLinecap="round" stroke-linejoin="round">
                    <path d="M356.7231,418.892201 C360.921058,323.247714 380,0 380,0 L1.13686838e-13,0 C1.13686838e-13,0 19.0789423,323.247714 23.2768998,418.892201 C23.7933445,430.716989 33.487749,440 45.3364657,440 L334.663534,440 C346.512251,440 356.206656,430.716989 356.7231,418.892201 Z" id="Stroke-1"></path>
                    <path d="M358,360 L18,360" id="Stroke-3"></path>
                    <path d="M379,22 L1,22" id="Stroke-5"></path>
                    <path d="M7,132 L371,132" id="Stroke-7"></path>
                    <polyline id="Stroke-9" points="190 389 190 361.169165 102 178"></polyline>
                    <path d="M218,388 L218,360" id="Stroke-11"></path>
                    <path d="M249,388 L249,360" id="Stroke-13"></path>
                    <path d="M278,388 L278,360" id="Stroke-15"></path>
                    <path d="M308,388 L308,360" id="Stroke-17"></path>
                    <path d="M338,388 L338,360" id="Stroke-19"></path>
                    <path d="M161,388 L161,360" id="Stroke-21"></path>
                    <path d="M130,388 L130,360" id="Stroke-23"></path>
                    <path d="M102,388 L102,360" id="Stroke-25"></path>
                    <path d="M71,388 L71,360" id="Stroke-27"></path>
                    <path d="M42,388 L42,360" id="Stroke-29"></path>
                    <path d="M135,132 L245,22" id="Stroke-31"></path>
                    <path d="M135,22 L245,132" id="Stroke-33"></path>
                    <path d="M245,132 L355,22" id="Stroke-35"></path>
                    <path d="M245,22 L355,132" id="Stroke-37"></path>
                    <path d="M25,132 L135,22" id="Stroke-39"></path>
                    <path d="M25,22 L135,132" id="Stroke-41"></path>
                    <path d="M355,132 L372,115" id="Stroke-43"></path>
                    <path d="M355,22 L377,44" id="Stroke-45"></path>
                    <path d="M2,44 L24,22" id="Stroke-47"></path>
                    <path d="M24,132 L7,115" id="Stroke-49"></path>
                    <path d="M238,76 C242.139168,76 245.496413,80.9239493 245.496413,87 C245.496413,80.9239493 248.853659,76 253,76 C248.853659,76 245.496413,71.0760507 245.496413,65 C245.496413,71.0760507 242.139168,76 238,76 Z" id="Stroke-51"></path>
                    <path d="M348,76 C352.139168,76 355.496413,80.9239493 355.496413,87 C355.496413,80.9239493 358.853659,76 363,76 C358.853659,76 355.496413,71.0760507 355.496413,65 C355.496413,71.0760507 352.139168,76 348,76 Z" id="Stroke-53"></path>
                    <path d="M126,76 C130.139168,76 133.496413,80.9239493 133.496413,87 C133.496413,80.9239493 136.853659,76 141,76 C136.853659,76 133.496413,71.0760507 133.496413,65 C133.496413,71.0760507 130.139168,76 126,76 Z" id="Stroke-55"></path>
                    <path d="M16,76 C20.1391679,76 23.4964132,80.9239493 23.4964132,87 C23.4964132,80.9239493 26.8536585,76 31,76 C26.8536585,76 23.4964132,71.0760507 23.4964132,65 C23.4964132,71.0760507 20.1391679,76 16,76 Z" id="Stroke-57"></path>
                    <path d="M191,361 L191,221" id="Stroke-59"></path>
                    <path d="M191,363 L300,277" id="Stroke-61"></path>
                    <path d="M189,363 L80,277" id="Stroke-63"></path>
                    <path d="M279,179 L191,362" id="Stroke-65"></path>
                    <path d="M380,0 L1.13686838e-13,0" id="Stroke-67"></path>
                </g>
            </g>
        </g>
    </g>
</svg>