<?xml version="1.0" encoding="utf-8"?>
<!-- Generator: Adobe Illustrator 18.1.1, SVG Export Plug-In . SVG Version: 6.00 Build 0)  -->
<!DOCTYPE svg PUBLIC "-//W3C//DTD SVG 1.1//EN" "http://www.w3.org/Graphics/SVG/1.1/DTD/svg11.dtd">
<svg version="1.1" id="Layer_1" xmlns="http://www.w3.org/2000/svg" xmlns:xlink="http://www.w3.org/1999/xlink" x="0px" y="0px"
	 viewBox="0 0 81.7 100" enable-background="new 0 0 81.7 100" xml:space="preserve">
<g>
	<linearGradient id="SVGID_1_" gradientUnits="userSpaceOnUse" x1="66.3321" y1="21.9195" x2="30.3321" y2="98.9195">
		<stop  offset="0" style="stop-color:#9CBF53"/>
		<stop  offset="0.1755" style="stop-color:#8CB768"/>
		<stop  offset="0.555" style="stop-color:#6CA988"/>
		<stop  offset="0.8416" style="stop-color:#54A198"/>
		<stop  offset="1" style="stop-color:#4A9E9E"/>
	</linearGradient>
	<path fill="url(#SVGID_1_)" d="M80.1,87c-7-12.1-13.9-24.2-21.1-36.2c-2.3-3.7-3.7-7.4-3.2-11.8c0.2-1.6,0-3.3,0-5
		c0.4,0,0.6,0,0.9,0c3.5-0.2,6.1-3.1,6.2-6.5c0-1.2,0-2.4,0-3.5c0-3.7-2.8-6.6-6.5-6.6c-10.9,0-21.8,0-32.7,0c-3.1,0-5.8,2-6.3,5.1
		c-0.3,2-0.3,4.1-0.1,6.1c0.4,2.8,2.6,4.9,5.4,5.3c0.5,0.1,0.9,0.1,1.5,0.1c0,0.3,0,0.6,0,0.9c0,3,0,6.1,0,9.1
		c0,0.7-0.2,1.5-0.6,2.2C16.5,59.8,9.2,73.4,1.9,86.9c-0.6,1.1-1.1,2.3-1.5,3.5c-1.2,4.2,0.3,7.7,4.1,8.9c1.3,0.4,2.7,0.6,4.1,0.6
		c18.9,0,37.8,0,56.6,0c3,0,6.1,0,9.1-0.3c3.9-0.4,6.6-3.1,7.2-6.5C81.9,91,81.2,88.9,80.1,87z M74,96.3c-0.7,0.2-1.5,0.3-2.2,0.3
		c-21.1,0-42.2,0-63.3,0c-0.6,0-1.3-0.1-2-0.2c-2.6-0.5-3.6-2-2.9-4.5C4,90.7,4.4,89.5,5,88.5c7.4-13.8,14.8-27.6,22.2-41.4
		c0.3-0.6,0.5-1.4,0.5-2.1c0-4.8,0-9.5,0-14.5c-1.3,0-2.6,0-3.8,0c-2,0-3.3-1.3-3.3-3.3c0-1.1,0-2.2,0-3.3c0-1.8,1.3-3.1,3.1-3.1
		c10.8,0,21.6,0,32.4,0c1.9,0,3.1,1.3,3.2,3.2c0,1.1,0,2.3,0,3.4c0,1.8-1.3,3.1-3.1,3.1c-1.2,0-2.5,0-3.8,0c0,0.4-0.1,0.6-0.1,0.9
		c0,4.7,0,9.3,0,14c0,0.5,0.2,1,0.4,1.5c7.3,13.6,14.6,27.2,21.9,40.8c0.9,1.7,1.8,3.3,1.9,5.2C76.7,94.8,75.9,95.9,74,96.3z"/>
	<linearGradient id="SVGID_2_" gradientUnits="userSpaceOnUse" x1="35.8929" y1="7.6882" x2="-0.1071" y2="84.6882">
		<stop  offset="0" style="stop-color:#9CBF53"/>
		<stop  offset="0.1755" style="stop-color:#8CB768"/>
		<stop  offset="0.555" style="stop-color:#6CA988"/>
		<stop  offset="0.8416" style="stop-color:#54A198"/>
		<stop  offset="1" style="stop-color:#4A9E9E"/>
	</linearGradient>
	<path fill="url(#SVGID_2_)" d="M35.1,13.5c2.2,0,4-1.8,4-4.1c0-2.3-1.9-4.1-4.1-4.1c-2.2,0-4,1.8-4,4.1
		C31,11.6,32.9,13.5,35.1,13.5z"/>
	<linearGradient id="SVGID_3_" gradientUnits="userSpaceOnUse" x1="41.5687" y1="10.3418" x2="5.5687" y2="87.3418">
		<stop  offset="0" style="stop-color:#9CBF53"/>
		<stop  offset="0.1755" style="stop-color:#8CB768"/>
		<stop  offset="0.555" style="stop-color:#6CA988"/>
		<stop  offset="0.8416" style="stop-color:#54A198"/>
		<stop  offset="1" style="stop-color:#4A9E9E"/>
	</linearGradient>
	<path fill="url(#SVGID_3_)" d="M44.8,7c2,0,3.4-1.5,3.4-3.5c0-1.9-1.6-3.5-3.5-3.5c-1.9,0-3.5,1.7-3.5,3.5C41.3,5.5,42.9,7,44.8,7z
		"/>
	<linearGradient id="SVGID_4_" gradientUnits="userSpaceOnUse" x1="71.9566" y1="24.5491" x2="35.9566" y2="101.5491">
		<stop  offset="0" style="stop-color:#9CBF53"/>
		<stop  offset="0.1755" style="stop-color:#8CB768"/>
		<stop  offset="0.555" style="stop-color:#6CA988"/>
		<stop  offset="0.8416" style="stop-color:#54A198"/>
		<stop  offset="1" style="stop-color:#4A9E9E"/>
	</linearGradient>
	<path fill="url(#SVGID_4_)" d="M50,52.7c-2.6,1.4-4.9,3.3-6.9,5.4c-1.3,1.4-2.5,2.8-3.9,4.1c-2.2,2.2-4.8,3-7.9,2.5
		c-2.6-0.4-5.1-1-7.6-1.6c-0.6-0.1-0.9,0-1.2,0.6c-0.5,1-1,1.9-1.6,2.9c-4.3,7.9-8.7,15.8-13,23.7c-0.4,0.8-0.7,1.6-1.1,2.6
		c22.2,0,44.1,0,66,0c0.1-0.1,0.2-0.2,0.4-0.4C66,79.1,58.6,65.7,51.2,52.1C50.7,52.3,50.4,52.5,50,52.7z"/>
	<linearGradient id="SVGID_5_" gradientUnits="userSpaceOnUse" x1="49.2352" y1="13.9261" x2="13.2352" y2="90.9261">
		<stop  offset="0" style="stop-color:#9CBF53"/>
		<stop  offset="0.1755" style="stop-color:#8CB768"/>
		<stop  offset="0.555" style="stop-color:#6CA988"/>
		<stop  offset="0.8416" style="stop-color:#54A198"/>
		<stop  offset="1" style="stop-color:#4A9E9E"/>
	</linearGradient>
	<path fill="url(#SVGID_5_)" d="M40.6,39.5c4,0,7.3-3.2,7.3-7.2c0-4.1-3.2-7.3-7.3-7.3c-4,0-7.3,3.2-7.3,7.2
		C33.3,36.2,36.6,39.5,40.6,39.5z"/>
	<linearGradient id="SVGID_6_" gradientUnits="userSpaceOnUse" x1="53.1169" y1="15.7409" x2="17.1169" y2="92.7409">
		<stop  offset="0" style="stop-color:#9CBF53"/>
		<stop  offset="0.1755" style="stop-color:#8CB768"/>
		<stop  offset="0.555" style="stop-color:#6CA988"/>
		<stop  offset="0.8416" style="stop-color:#54A198"/>
		<stop  offset="1" style="stop-color:#4A9E9E"/>
	</linearGradient>
	<path fill="url(#SVGID_6_)" d="M37.8,53.9c2.9-0.1,5.2-2.4,5.2-5.4c0-2.9-2.3-5.1-5.2-5.1c-3,0-5.3,2.4-5.3,5.3
		C32.5,51.6,35,54,37.8,53.9z"/>
</g>
</svg>
