<?xml version="1.0" encoding="UTF-8"?>
<svg width="1278px" height="849px" viewBox="0 0 1278 849" version="1.1" xmlns="http://www.w3.org/2000/svg" xmlns:xlink="http://www.w3.org/1999/xlink">
    <!-- Generator: Sketch 41.2 (35397) - http://www.bohemiancoding.com/sketch -->
    <title>Group 2</title>
    <desc>Created with Sketch.</desc>
    <defs>
        <polygon id="path-1" points="0.452238961 44 30.586819 44 30.586819 0.377 0.452238961 0.377"></polygon>
    </defs>
    <g id="Holiday-Card" stroke="none" stroke-width="1" fill="none" fill-rule="evenodd" opacity="0.5">
        <g id="Question-4" transform="translate(-87.000000, -101.000000)">
            <g id="Group" transform="translate(70.000000, 59.000000)">
                <g id="Page-1" transform="translate(656.000000, 466.500000) scale(1, -1) translate(-656.000000, -466.500000) translate(17.000000, 42.000000)">
                    <g id="Group-2">
                        <path d="M124.066187,699.290009 C127.066822,701.452402 129.458448,705.099617 131,709.291482 C132.53838,705.099617 134.930006,701.452402 137.930641,699.290009 C135.00296,697.429119 132.570099,694.284409 131,690.355143 C129.426729,694.284409 126.99704,697.429119 124.066187,699.290009 M131,722 C129.931064,722 129.068302,721.114943 129.068302,720.025641 C129.068302,710.147362 123.758511,701.144415 117.931698,701.144415 C116.865934,701.144415 116,700.262599 116,699.173298 C116,698.080754 116.865934,697.198939 117.931698,697.198939 C123.967858,697.198939 129.068302,689.307987 129.068302,679.974359 C129.068302,678.885057 129.931064,678 131,678 C132.065764,678 132.928526,678.885057 132.928526,679.974359 C132.928526,689.307987 138.032142,697.198939 144.068302,697.198939 C145.134066,697.198939 146,698.080754 146,699.173298 C146,700.262599 145.134066,701.144415 144.068302,701.144415 C138.241489,701.144415 132.928526,710.147362 132.928526,720.025641 C132.928526,721.114943 132.065764,722 131,722" id="Fill-5" fill="#EBE3CB"></path>
                        <g id="Group-9" transform="translate(556.000000, 805.000000)">
                            <mask id="mask-2" fill="white">
                                <use xlink:href="#path-1"></use>
                            </mask>
                            <g id="Clip-8"></g>
                            <path d="M8.55461126,21.4852143 C11.5687065,23.6291429 13.9710615,27.2452143 15.519529,31.4012857 C17.0648104,27.2452143 19.4671654,23.6291429 22.4812606,21.4852143 C19.5404468,19.6402143 17.0966719,16.5223571 15.519529,12.6266429 C13.9392,16.5223571 11.4986113,19.6402143 8.55461126,21.4852143 M15.519529,44.0012857 C14.4457974,44.0012857 13.5791654,43.1237857 13.5791654,42.0437857 C13.5791654,32.2498571 8.24555498,23.3237857 2.3926026,23.3237857 C1.32205714,23.3237857 0.452238961,22.4495 0.452238961,21.3695 C0.452238961,20.2862857 1.32205714,19.412 2.3926026,19.412 C8.45584069,19.412 13.5791654,11.5884286 13.5791654,2.3345 C13.5791654,1.2545 14.4457974,0.377 15.519529,0.377 C16.5900745,0.377 17.4567065,1.2545 17.4567065,2.3345 C17.4567065,11.5884286 22.5832173,19.412 28.6464554,19.412 C29.7170009,19.412 30.586819,20.2862857 30.586819,21.3695 C30.586819,22.4495 29.7170009,23.3237857 28.6464554,23.3237857 C22.793503,23.3237857 17.4567065,32.2498571 17.4567065,42.0437857 C17.4567065,43.1237857 16.5900745,44.0012857 15.519529,44.0012857" id="Fill-7" fill="#EBE3CB" mask="url(#mask-2)"></path>
                        </g>
                        <path d="M968.066187,156.290009 C971.066822,158.452402 973.458448,162.099617 975,166.291482 C976.53838,162.099617 978.930006,158.452402 981.930641,156.290009 C979.00296,154.429119 976.570099,151.284409 975,147.355143 C973.426729,151.284409 970.99704,154.429119 968.066187,156.290009 M975,179 C973.931064,179 973.068302,178.114943 973.068302,177.025641 C973.068302,167.147362 967.758511,158.144415 961.931698,158.144415 C960.865934,158.144415 960,157.262599 960,156.173298 C960,155.080754 960.865934,154.198939 961.931698,154.198939 C967.967858,154.198939 973.068302,146.307987 973.068302,136.974359 C973.068302,135.885057 973.931064,135 975,135 C976.065764,135 976.928526,135.885057 976.928526,136.974359 C976.928526,146.307987 982.032142,154.198939 988.068302,154.198939 C989.134066,154.198939 990,155.080754 990,156.173298 C990,157.262599 989.134066,158.144415 988.068302,158.144415 C982.241489,158.144415 976.928526,167.147362 976.928526,177.025641 C976.928526,178.114943 976.065764,179 975,179" id="Fill-10" fill="#EBE3CB"></path>
                        <path d="M8.06618735,221.290009 C11.0668217,223.452402 13.4584479,227.099617 15,231.291482 C16.5383802,227.099617 18.9300063,223.452402 21.9306407,221.290009 C19.0029605,219.429119 16.5700994,216.284409 15,212.355143 C13.4267287,216.284409 10.9970395,219.429119 8.06618735,221.290009 M15,244 C13.9310636,244 13.068302,243.114943 13.068302,242.025641 C13.068302,232.147362 7.75851131,223.144415 1.93169803,223.144415 C0.865933601,223.144415 0,222.262599 0,221.173298 C0,220.080754 0.865933601,219.198939 1.93169803,219.198939 C7.9678579,219.198939 13.068302,211.307987 13.068302,201.974359 C13.068302,200.885057 13.9310636,200 15,200 C16.0657644,200 16.9285261,200.885057 16.9285261,201.974359 C16.9285261,211.307987 22.0321421,219.198939 28.068302,219.198939 C29.1340664,219.198939 30,220.080754 30,221.173298 C30,222.262599 29.1340664,223.144415 28.068302,223.144415 C22.2414887,223.144415 16.9285261,232.147362 16.9285261,242.025641 C16.9285261,243.114943 16.0657644,244 15,244" id="Fill-10-Copy" fill="#EBE3CB"></path>
                        <path d="M1256.06619,312.290009 C1259.06682,314.452402 1261.45845,318.099617 1263,322.291482 C1264.53838,318.099617 1266.93001,314.452402 1269.93064,312.290009 C1267.00296,310.429119 1264.5701,307.284409 1263,303.355143 C1261.42673,307.284409 1258.99704,310.429119 1256.06619,312.290009 M1263,335 C1261.93106,335 1261.0683,334.114943 1261.0683,333.025641 C1261.0683,323.147362 1255.75851,314.144415 1249.9317,314.144415 C1248.86593,314.144415 1248,313.262599 1248,312.173298 C1248,311.080754 1248.86593,310.198939 1249.9317,310.198939 C1255.96786,310.198939 1261.0683,302.307987 1261.0683,292.974359 C1261.0683,291.885057 1261.93106,291 1263,291 C1264.06576,291 1264.92853,291.885057 1264.92853,292.974359 C1264.92853,302.307987 1270.03214,310.198939 1276.0683,310.198939 C1277.13407,310.198939 1278,311.080754 1278,312.173298 C1278,313.262599 1277.13407,314.144415 1276.0683,314.144415 C1270.24149,314.144415 1264.92853,323.147362 1264.92853,333.025641 C1264.92853,334.114943 1264.06576,335 1263,335" id="Fill-10-Copy-2" fill="#EBE3CB"></path>
                        <path d="M311.066187,21.2900088 C314.066822,23.452402 316.458448,27.0996169 318,31.2914825 C319.53838,27.0996169 321.930006,23.452402 324.930641,21.2900088 C322.00296,19.4291188 319.570099,16.2844091 318,12.3551429 C316.426729,16.2844091 313.99704,19.4291188 311.066187,21.2900088 M318,44 C316.931064,44 316.068302,43.1149425 316.068302,42.025641 C316.068302,32.1473622 310.758511,23.144415 304.931698,23.144415 C303.865934,23.144415 303,22.2625995 303,21.173298 C303,20.0807545 303.865934,19.198939 304.931698,19.198939 C310.967858,19.198939 316.068302,11.307987 316.068302,1.97435897 C316.068302,0.885057471 316.931064,0 318,0 C319.065764,0 319.928526,0.885057471 319.928526,1.97435897 C319.928526,11.307987 325.032142,19.198939 331.068302,19.198939 C332.134066,19.198939 333,20.0807545 333,21.173298 C333,22.2625995 332.134066,23.144415 331.068302,23.144415 C325.241489,23.144415 319.928526,32.1473622 319.928526,42.025641 C319.928526,43.1149425 319.065764,44 318,44" id="Fill-10-Copy-3" fill="#EBE3CB"></path>
                        <path d="M1144.06619,761.290009 C1147.06682,763.452402 1149.45845,767.099617 1151,771.291482 C1152.53838,767.099617 1154.93001,763.452402 1157.93064,761.290009 C1155.00296,759.429119 1152.5701,756.284409 1151,752.355143 C1149.42673,756.284409 1146.99704,759.429119 1144.06619,761.290009 M1151,784 C1149.93106,784 1149.0683,783.114943 1149.0683,782.025641 C1149.0683,772.147362 1143.75851,763.144415 1137.9317,763.144415 C1136.86593,763.144415 1136,762.262599 1136,761.173298 C1136,760.080754 1136.86593,759.198939 1137.9317,759.198939 C1143.96786,759.198939 1149.0683,751.307987 1149.0683,741.974359 C1149.0683,740.885057 1149.93106,740 1151,740 C1152.06576,740 1152.92853,740.885057 1152.92853,741.974359 C1152.92853,751.307987 1158.03214,759.198939 1164.0683,759.198939 C1165.13407,759.198939 1166,760.080754 1166,761.173298 C1166,762.262599 1165.13407,763.144415 1164.0683,763.144415 C1158.24149,763.144415 1152.92853,772.147362 1152.92853,782.025641 C1152.92853,783.114943 1152.06576,784 1151,784" id="Fill-15" fill="#EBE3CB"></path>
                    </g>
                </g>
            </g>
        </g>
    </g>
</svg>