<?xml version="1.0" encoding="UTF-8"?>
<svg width="1337px" height="728px" viewBox="0 0 1337 728" version="1.1" xmlns="http://www.w3.org/2000/svg" xmlns:xlink="http://www.w3.org/1999/xlink">
    <!-- Generator: Sketch 41.2 (35397) - http://www.bohemiancoding.com/sketch -->
    <title>Page 1</title>
    <desc>Created with Sketch.</desc>
    <defs>
        <polygon id="path-1" points="0.452238961 44 30.586819 44 30.586819 0.377 0.452238961 0.377"></polygon>
    </defs>
    <g id="MASTER" stroke="none" stroke-width="1" fill="none" fill-rule="evenodd" opacity="0.1">
        <g id="Question-02" transform="translate(-52.000000, -187.000000)">
            <g id="Page-1" transform="translate(52.000000, 110.000000)">
                <path d="M1315.06619,98.2900088 C1318.06682,100.452402 1320.45845,104.099617 1322,108.291482 C1323.53838,104.099617 1325.93001,100.452402 1328.93064,98.2900088 C1326.00296,96.4291188 1323.5701,93.2844091 1322,89.3551429 C1320.42673,93.2844091 1317.99704,96.4291188 1315.06619,98.2900088 M1322,121 C1320.93106,121 1320.0683,120.114943 1320.0683,119.025641 C1320.0683,109.147362 1314.75851,100.144415 1308.9317,100.144415 C1307.86593,100.144415 1307,99.2625995 1307,98.173298 C1307,97.0807545 1307.86593,96.198939 1308.9317,96.198939 C1314.96786,96.198939 1320.0683,88.307987 1320.0683,78.974359 C1320.0683,77.8850575 1320.93106,77 1322,77 C1323.06576,77 1323.92853,77.8850575 1323.92853,78.974359 C1323.92853,88.307987 1329.03214,96.198939 1335.0683,96.198939 C1336.13407,96.198939 1337,97.0807545 1337,98.173298 C1337,99.2625995 1336.13407,100.144415 1335.0683,100.144415 C1329.24149,100.144415 1323.92853,109.147362 1323.92853,119.025641 C1323.92853,120.114943 1323.06576,121 1322,121" id="Fill-3" fill="#FFFFFF"></path>
                <path d="M8.06618735,645.290009 C11.0668217,647.452402 13.4584479,651.099617 15,655.291482 C16.5383802,651.099617 18.9300063,647.452402 21.9306407,645.290009 C19.0029605,643.429119 16.5700994,640.284409 15,636.355143 C13.4267287,640.284409 10.9970395,643.429119 8.06618735,645.290009 M15,668 C13.9310636,668 13.068302,667.114943 13.068302,666.025641 C13.068302,656.147362 7.75851131,647.144415 1.93169803,647.144415 C0.865933601,647.144415 0,646.262599 0,645.173298 C0,644.080754 0.865933601,643.198939 1.93169803,643.198939 C7.9678579,643.198939 13.068302,635.307987 13.068302,625.974359 C13.068302,624.885057 13.9310636,624 15,624 C16.0657644,624 16.9285261,624.885057 16.9285261,625.974359 C16.9285261,635.307987 22.0321421,643.198939 28.068302,643.198939 C29.1340664,643.198939 30,644.080754 30,645.173298 C30,646.262599 29.1340664,647.144415 28.068302,647.144415 C22.2414887,647.144415 16.9285261,656.147362 16.9285261,666.025641 C16.9285261,667.114943 16.0657644,668 15,668" id="Fill-5" fill="#FFFFFF"></path>
                <g id="Group-9" transform="translate(591.000000, 761.000000)">
                    <mask id="mask-2" fill="white">
                        <use xlink:href="#path-1"></use>
                    </mask>
                    <g id="Clip-8"></g>
                    <path d="M8.55461126,21.4852143 C11.5687065,23.6291429 13.9710615,27.2452143 15.519529,31.4012857 C17.0648104,27.2452143 19.4671654,23.6291429 22.4812606,21.4852143 C19.5404468,19.6402143 17.0966719,16.5223571 15.519529,12.6266429 C13.9392,16.5223571 11.4986113,19.6402143 8.55461126,21.4852143 M15.519529,44.0012857 C14.4457974,44.0012857 13.5791654,43.1237857 13.5791654,42.0437857 C13.5791654,32.2498571 8.24555498,23.3237857 2.3926026,23.3237857 C1.32205714,23.3237857 0.452238961,22.4495 0.452238961,21.3695 C0.452238961,20.2862857 1.32205714,19.412 2.3926026,19.412 C8.45584069,19.412 13.5791654,11.5884286 13.5791654,2.3345 C13.5791654,1.2545 14.4457974,0.377 15.519529,0.377 C16.5900745,0.377 17.4567065,1.2545 17.4567065,2.3345 C17.4567065,11.5884286 22.5832173,19.412 28.6464554,19.412 C29.7170009,19.412 30.586819,20.2862857 30.586819,21.3695 C30.586819,22.4495 29.7170009,23.3237857 28.6464554,23.3237857 C22.793503,23.3237857 17.4567065,32.2498571 17.4567065,42.0437857 C17.4567065,43.1237857 16.5900745,44.0012857 15.519529,44.0012857" id="Fill-7" fill="#FFFFFF" mask="url(#mask-2)"></path>
                </g>
                <path d="M969.066187,592.290009 C972.066822,594.452402 974.458448,598.099617 976,602.291482 C977.53838,598.099617 979.930006,594.452402 982.930641,592.290009 C980.00296,590.429119 977.570099,587.284409 976,583.355143 C974.426729,587.284409 971.99704,590.429119 969.066187,592.290009 M976,615 C974.931064,615 974.068302,614.114943 974.068302,613.025641 C974.068302,603.147362 968.758511,594.144415 962.931698,594.144415 C961.865934,594.144415 961,593.262599 961,592.173298 C961,591.080754 961.865934,590.198939 962.931698,590.198939 C968.967858,590.198939 974.068302,582.307987 974.068302,572.974359 C974.068302,571.885057 974.931064,571 976,571 C977.065764,571 977.928526,571.885057 977.928526,572.974359 C977.928526,582.307987 983.032142,590.198939 989.068302,590.198939 C990.134066,590.198939 991,591.080754 991,592.173298 C991,593.262599 990.134066,594.144415 989.068302,594.144415 C983.241489,594.144415 977.928526,603.147362 977.928526,613.025641 C977.928526,614.114943 977.065764,615 976,615" id="Fill-10" fill="#FFFFFF"></path>
                <path d="M1251.06619,747.290009 C1254.06682,749.452402 1256.45845,753.099617 1258,757.291482 C1259.53838,753.099617 1261.93001,749.452402 1264.93064,747.290009 C1262.00296,745.429119 1259.5701,742.284409 1258,738.355143 C1256.42673,742.284409 1253.99704,745.429119 1251.06619,747.290009 M1258,770 C1256.93106,770 1256.0683,769.114943 1256.0683,768.025641 C1256.0683,758.147362 1250.75851,749.144415 1244.9317,749.144415 C1243.86593,749.144415 1243,748.262599 1243,747.173298 C1243,746.080754 1243.86593,745.198939 1244.9317,745.198939 C1250.96786,745.198939 1256.0683,737.307987 1256.0683,727.974359 C1256.0683,726.885057 1256.93106,726 1258,726 C1259.06576,726 1259.92853,726.885057 1259.92853,727.974359 C1259.92853,737.307987 1265.03214,745.198939 1271.0683,745.198939 C1272.13407,745.198939 1273,746.080754 1273,747.173298 C1273,748.262599 1272.13407,749.144415 1271.0683,749.144415 C1265.24149,749.144415 1259.92853,758.147362 1259.92853,768.025641 C1259.92853,769.114943 1259.06576,770 1258,770" id="Fill-15" fill="#FFFFFF"></path>
            </g>
        </g>
    </g>
</svg>