<?xml version="1.0" encoding="UTF-8"?>
<svg width="31px" height="30px" viewBox="0 0 31 30" version="1.1" xmlns="http://www.w3.org/2000/svg" xmlns:xlink="http://www.w3.org/1999/xlink">
    <!-- Generator: Sketch 41.2 (35397) - http://www.bohemiancoding.com/sketch -->
    <title>logo</title>
    <desc>Created with Sketch.</desc>
    <defs></defs>
    <g id="Holiday-Card" stroke="none" stroke-width="1" fill="none" fill-rule="evenodd" opacity="0.5">
        <g id="1.1" transform="translate(-70.000000, -59.000000)" fill="#F2EDDC">
            <g id="Group" transform="translate(70.000000, 59.000000)">
                <g id="logo">
                    <path d="M14.4425197,8.34615385 C14.4589176,8.14958203 14.4672793,7.95075673 14.4672793,7.75 C14.4672793,3.79903987 11.2286685,0.596153846 7.23363965,0.596153846 C3.23861079,0.596153846 0,3.79903987 0,7.75 C0,7.95075673 0.00836168287,8.14958203 0.0247591902,8.34615385 L0,8.34615385 L0,22.6538462 C0,26.6048063 3.23861079,29.8076923 7.23197544,29.8076923 C11.2286685,29.8076923 14.4672793,26.6048063 14.4672793,22.6538462 L14.4672793,8.34615385 L14.4425197,8.34615385 Z M22.9048614,14.9038462 C26.9015544,14.9038462 30.1401652,11.7009601 30.1401652,7.75 C30.1401652,3.79903987 26.9015544,0.596153846 22.9065256,0.596153846 C18.9114967,0.596153846 15.6728859,3.79903987 15.6728859,7.75 C15.6728859,11.7009601 18.9114967,14.9038462 22.9048614,14.9038462 Z" id="Combined-Shape-Copy-8"></path>
                </g>
            </g>
        </g>
    </g>
</svg>