<?xml version="1.0" encoding="UTF-8"?>
<svg width="200px" height="127px" viewBox="0 0 200 127" version="1.1" xmlns="http://www.w3.org/2000/svg" xmlns:xlink="http://www.w3.org/1999/xlink">
    <!-- Generator: Sketch 41.2 (35397) - http://www.bohemiancoding.com/sketch -->
    <title>Page 1</title>
    <desc>Created with Sketch.</desc>
    <defs></defs>
    <g id="Holiday-Card" stroke="none" stroke-width="1" fill="none" fill-rule="evenodd">
        <g id="Blood-and-Sand" transform="translate(-598.000000, -1260.000000)" stroke="#AF134B" stroke-width="2">
            <g id="Page-1" transform="translate(599.000000, 1261.000000)">
                <path d="M28.2174776,39.6372302 C29.6429101,39.4933453 25.8679032,35.6250899 27.546235,35.3818345 C27.546235,35.3818345 34.3082487,31.7847122 41.2203792,31.7847122 C41.2203792,31.7847122 60.1540176,25.1898381 70.372322,27.8876799 C80.5901755,30.5855216 107.488114,11.4007194 107.488114,11.4007194 C107.488114,11.4007194 112.14624,6.00503597 122.364544,10.0517986 C132.582848,14.0985612 136.489489,18.4452338 140.095896,19.1947842 C143.702304,19.9438849 154.371409,21.1430755 161.584224,23.5410072 C168.797038,25.9393885 169.69864,27.4380396 169.69864,27.4380396 C169.69864,27.4380396 177.061571,26.3890288 178.413974,26.538759 C179.766377,26.6884892 183.222668,25.3395683 196.145777,31.7847122 C196.145777,31.7847122 194.793375,34.9321942 184.124269,31.6345324 C173.455164,28.3373201 173.755848,33.4330935 173.755848,33.4330935 C173.755848,33.4330935 177.061571,36.1309353 176.310537,38.0796763 C176.310537,38.0796763 182.62175,38.6790468 185.175988,40.6273381 C187.730677,42.5760791 196.746695,40.6273381 196.746695,40.6273381 C196.746695,40.6273381 192.990171,46.6228417 186.07759,44.8242806 C179.165459,43.0257194 175.559052,43.6250899 174.507333,44.3746403 C173.455164,45.123741 172.253329,54.8660971 167.294519,56.9645683 C164.517134,58.1394784 161.551315,62.3705935 159.479434,65.8660971 C157.851592,68.6116007 156.77553,70.9034173 156.77553,70.9034173 C156.77553,70.9034173 151.967288,73.3013489 150.765002,70.7532374 C149.562716,68.2055755 149.111013,63.6183453 149.111013,63.6183453 C149.111013,63.6183453 147.609395,62.9596223 147.158594,63.5589928 C146.860615,63.9555755 146.489155,65.992446 145.354489,66.2568345 C144.916311,66.3593525 144.390677,65.7622302 144.390677,65.7622302 C144.390677,65.7622302 140.246464,62.3602518 143.101386,58.0135791 C145.956308,53.6669065 139.94578,54.4164568 139.94578,54.4164568 C139.94578,54.4164568 136.640057,59.9618705 135.738455,60.2617806 C134.836853,60.5616906 143.852871,71.8026978 144.453789,73.1516187 C145.054706,74.5005396 159.931137,84.6920863 159.931137,84.6920863 L164.73983,87.2401978 L155.273011,90.6875899 L151.967288,85.5913669 L147.308711,85.2919065 C147.308711,85.2919065 143.101386,81.3948741 142.500468,80.0459532 C141.8991,78.6970324 134.98697,74.9501799 133.935251,75.0999101 C133.935251,75.0999101 138.894061,84.5423561 133.183766,87.2401978 C133.183766,87.2401978 126.571869,91.5868705 124.768665,91.5868705 C122.965462,91.5868705 118.457452,95.0338129 118.457452,95.0338129 C118.457452,95.0338129 104.482624,95.0338129 102.67942,93.0855216 C102.67942,93.0855216 99.2235805,91.4366906 102.379187,88.5891187 C105.534793,85.7415468 113.64921,87.0904676 113.64921,87.0904676 C113.64921,87.0904676 118.157219,87.2401978 119.208938,86.9402878 C120.260656,86.6408273 124.017631,84.3926259 124.017631,84.3926259 C124.017631,84.3926259 124.919233,77.947482 118.908253,74.9501799 C112.897725,71.9524281 110.810967,70.0630396 110.810967,70.0630396 C105.852157,73.2105216 89.906878,75.6992806 89.906878,75.6992806 C81.4917773,75.8494604 78.0359375,78.2473921 77.7352533,79.7460432 C77.4345691,81.2451439 74.8803311,89.1884892 74.8803311,89.1884892 C74.8803311,89.1884892 73.2272442,91.7366007 71.5741572,97.5819245 C69.9215211,103.427248 78.4867384,115.117896 78.4867384,115.117896 L83.5956652,124.860252 L72.7764432,124.860252 L69.1700359,119.614299 C70.6725554,116.317086 67.6675165,111.071133 65.8643128,109.572482 C64.0611092,108.073381 58.6514982,102.228058 58.6514982,102.228058 C63.309624,95.9330935 57.900013,89.038759 57.900013,89.038759 L46.0290725,79.896223 C23.4890268,84.242446 21.9860565,96.0832734 21.9860565,96.0832734 L20.4835371,115.117896 L25.1416629,124.860252 L15.0739261,124.860252 L13.7215233,122.31214 C14.1723243,120.363849 12.6698048,113.469065 12.6698048,113.469065 C12.6698048,113.469065 11.1668346,110.771223 10.8666011,108.673201 C10.5659169,106.57473 13.87164,100.729406 13.87164,100.729406 L13.87164,84.0927158 C14.7732419,84.0927158 27.0954341,75.6992806 26.1938323,73.1516187 C25.2922304,70.6035072 24.690862,62.6597122 24.690862,57.8638489 C24.690862,53.067536 27.6963517,41.976259 27.6963517,41.976259 L28.2972693,39.2784173" id="Stroke-1"></path>
                <path d="M133.935071,75.099955 C133.935071,75.099955 129.200759,67.3652428 120.785659,62.2694694" id="Stroke-3"></path>
                <path d="M135.738274,60.2618255 C135.738274,60.2618255 126.278668,66.2510342 125.078185,65.3090378" id="Stroke-5"></path>
                <path d="M46.0288922,79.8961331 C46.0288922,79.8961331 27.38016,81.9352518 25.0959517,66.2571942" id="Stroke-7"></path>
                <path d="M176.310357,38.0795863 C176.310357,38.0795863 173.679933,36.6713129 171.726162,38.0795863 C169.772842,39.4878597 169.911689,45.0858813 174.507153,44.3745504" id="Stroke-9"></path>
                <path d="M173.755803,33.4333183 C173.755803,33.4333183 171.166854,28.5551709 169.698595,27.4382644" id="Stroke-11"></path>
                <path d="M13.7214783,122.312185 L22.8952769,120.162005" id="Stroke-13"></path>
                <path id="Stroke-15"></path>
                <path d="M111.942432,86.887545 C111.942432,86.887545 108.739943,92.597527 113.110007,94.8947392" id="Stroke-17"></path>
                <path d="M151.967107,85.5915917 L157.347867,82.904991" id="Stroke-19"></path>
                <path d="M155.108739,70.9631745 C154.446062,70.9631745 152.041489,69.9141637 154.145377,68.5652428" id="Stroke-21"></path>
                <path d="M110.810787,70.0631745 C110.810787,70.0631745 103.505107,66.6994155 103.054306,62.8356565" id="Stroke-23"></path>
                <path d="M77.7352082,79.746268 C77.7352082,79.746268 81.1153135,59.5718076 72.8507803,51.9279227" id="Stroke-25"></path>
                <path d="M27.2175561,37.4790018 C27.2175561,37.4790018 0.225400458,42.577473 0.225400458,28.7308004 C0.225400458,14.8841277 12.7919268,15.639973 13.7214783,16.0181205 C14.6510297,16.396268 24.2413684,16.1988759 22.376405,6.47045863" id="Stroke-27"></path>
                <path d="M19.1667025,0.285881295 C19.1667025,0.285881295 17.0776911,4.80386691 19.1667025,5.56016187 C21.255714,6.31600719 23.2590732,7.44640288 23.2716957,3.47922662 C23.2843181,-0.4875 19.1667025,0.285881295 19.1667025,0.285881295 Z" id="Stroke-29"></path>
            </g>
        </g>
    </g>
</svg>