<?xml version="1.0" encoding="UTF-8"?>
<svg width="144px" height="111px" viewBox="0 0 144 111" version="1.1" xmlns="http://www.w3.org/2000/svg" xmlns:xlink="http://www.w3.org/1999/xlink">
    <!-- Generator: Sketch 41.2 (35397) - http://www.bohemiancoding.com/sketch -->
    <title>Group 9</title>
    <desc>Created with Sketch.</desc>
    <defs></defs>
    <g id="Holiday-Card" stroke="none" stroke-width="1" fill="none" fill-rule="evenodd">
        <g id="East-Side" transform="translate(-630.000000, -1364.000000)" stroke-width="2" stroke="#171D23">
            <g id="Group-9" transform="translate(631.000000, 1365.000000)">
                <g id="Group">
                    <path d="M31.7488083,31.8897633 C7.54968003,35.2569183 -2.68494972,62.2390297 1.79725018,83.7161075 C2.22782106,85.7792472 4.00106921,87.4139193 5.64245674,88.7378217 C11.4031896,93.3842856 17.3366491,97.9200118 23.824925,101.483082 C53.4694076,117.762505 95.7919582,101.718631 120.188559,83.4719095 C125.89678,79.2026136 149.375188,61.5206738 139.525843,49.3546214 C130.552338,38.270419 125.146532,37.4028687 111.73976,30.080193" id="Path-8" strokeLinecap="round"></path>
                    <path d="M28.4034472,62.9420525 C29.1471954,41.7519938 28.5724355,19.728626 45.0033325,3.69897461 C46.3635563,2.3719677 48.4364186,1.87882015 50.3230049,1.64364085 C57.7656681,0.715848573 65.2799379,0.168706874 72.7800141,0.236371209 C101.056533,0.491476862 103.467729,5.86893087 109.039967,34.5415039 C110.344736,41.2553355 111.974712,50.5491486 106.861957,56.6163833 C94.6770165,71.0760823 72.7800141,80.9485294 45.1788268,76.2931124 C38.3576883,75.1426095 28.4034472,62.9420525 28.4034472,62.9420525 Z" id="Path-9"></path>
                    <path d="M30,48.8347599 C34.0201786,52.2029192 37.3463634,56.6381874 42.0605358,58.9392377 C64.7788671,70.0283573 96.4298133,52.3998911 110.011322,35" id="Path-10"></path>
                    <path d="M30,56.8347599 C34.0201786,60.2029192 37.3463634,64.6381874 42.0605358,66.9392377 C64.7788671,78.0283573 96.4298133,60.3998911 110.011322,43" id="Path-10-Copy"></path>
                </g>
                <path d="M43.3220339,16.0606318 C47.2065572,29.332768 56.1158364,20.8069442 69.6312861,17.3170793 C78.2619839,15.0885209 89.8379478,14.4074205 99.1292373,13.625" id="Path-12" strokeLinecap="round"></path>
            </g>
        </g>
    </g>
</svg>