<?xml version="1.0" encoding="UTF-8"?>
<svg width="230px" height="163px" viewBox="0 0 230 163" version="1.1" xmlns="http://www.w3.org/2000/svg" xmlns:xlink="http://www.w3.org/1999/xlink">
    <!-- Generator: Sketch 41.2 (35397) - http://www.bohemiancoding.com/sketch -->
    <title>Group 2</title>
    <desc>Created with Sketch.</desc>
    <defs></defs>
    <g id="Holiday-Card" stroke="none" stroke-width="1" fill="none" fill-rule="evenodd" stroke-linejoin="round">
        <g id="Fog-Cutter" transform="translate(-605.000000, -1332.000000)" stroke="#8E8E8E" stroke-width="2">
            <g id="Group-2" transform="translate(606.000000, 1333.000000)">
                <polyline id="Stroke-1" points="87 159.800631 88.2528 159.800631 117.6256 159.800631 102.9392 0 90.0456 140.292798"></polyline>
                <polygon id="Stroke-3" points="99.3616 37.000798 94 37 94.5136 89.7489557"></polygon>
                <polygon id="Stroke-4" points="106 37.000798 111.3616 37 110.848 89.7489557"></polygon>
                <polygon id="Stroke-5" points="123 159.125596 148.9432 159.125596 148.9432 94 123 94"></polygon>
                <polyline id="Stroke-7" points="142 94.9330443 142 73 163.7464 73 163.7464 160.05864 153.9296 160.05864"></polyline>
                <polygon id="Stroke-9" points="145 72.1880591 160.004 72.1880591 160.004 68 145 68"></polygon>
                <polygon id="Stroke-13" points="59 159.582294 82.8168 159.582294 82.8168 144 59 144"></polygon>
                <polygon id="Stroke-15" points="26 159.830581 26 142.164955 29.284073 142.164955 29.284073 138.702224 32.4431292 138.702224 32.4431292 134 39.0556974 134 38.728242 134 45.3408103 134 45.3408103 138.702224 48.4998665 138.702224 48.4998665 142.164955 51.7839395 142.164955 51.7839395 159.830581"></polygon>
                <polygon id="Stroke-16" points="0 159.830581 19.1992 159.830581 19.1992 145 0 145"></polygon>
                <polyline id="Stroke-18" points="81.7464 138.633241 81.7464 86 60 86 60 138.633241"></polyline>
                <polyline id="Stroke-21" points="51.6184 131.61668 51.6184 105 43.3088 105 35 105 35 125.689714"></polyline>
                <polyline id="Stroke-22" points="46.6936 104.873084 46.6936 93 17 93 17 143.294217"></polyline>
                <polygon id="Stroke-23" points="168 159.635034 188.6992 159.635034 188.6992 133 168 133"></polygon>
                <path d="M76,90 L76,131.579734" id="Stroke-29"></path>
                <path d="M100,49 L104.5848,49" id="Stroke-30"></path>
                <path d="M98,64 L106.1968,64" id="Stroke-32"></path>
                <path d="M97,80 L108.392,80" id="Stroke-34"></path>
                <path d="M95,95 L108.6144,95" id="Stroke-36"></path>
                <path d="M93,110 L108.8376,110" id="Stroke-38"></path>
                <path d="M91,126 L110.172,126" id="Stroke-40"></path>
                <path d="M138,100 L138,150.755478" id="Stroke-41"></path>
                <path d="M143,100 L143,120.309852" id="Stroke-43"></path>
                <path d="M23,126.997202 L23,98" id="Stroke-44"></path>
                <path d="M84,58 L90.9931444,58 C95.4152086,58 99,61.5907123 99,66 C99,70.418278 95.4150164,74 90.9931444,74 L26.0068556,74 C21.5847914,74 18,70.4092877 18,66 L11.0068556,66 C6.58479137,66 3,62.4092877 3,58 C3,53.581722 6.58498357,50 11.0068556,50 L75.9931444,50 C80.4152086,50 84,53.5907123 84,58 Z" id="Combined-Shape" fill="#FAF7EE"></path>
                <path d="M216.693359,93 L219.686019,93 C224.108351,93 227.693359,96.5907123 227.693359,101 C227.693359,105.418278 224.11018,109 219.686019,109 L177.00734,109 C172.585008,109 169,105.409288 169,101 L166.00734,101 C161.585008,101 158,97.4092877 158,93 C158,88.581722 161.58318,85 166.00734,85 L208.686019,85 C213.108351,85 216.693359,88.5907123 216.693359,93 Z" id="Combined-Shape-Copy-2" fill="#FAF7EE" transform="translate(192.846680, 97.000000) scale(-1, 1) translate(-192.846680, -97.000000) "></path>
            </g>
        </g>
    </g>
</svg>