<?xml version="1.0" encoding="UTF-8"?>
<svg width="140px" height="102px" viewBox="0 0 140 102" version="1.1" xmlns="http://www.w3.org/2000/svg" xmlns:xlink="http://www.w3.org/1999/xlink">
    <!-- Generator: Sketch 41.2 (35397) - http://www.bohemiancoding.com/sketch -->
    <title>Group 2</title>
    <desc>Created with Sketch.</desc>
    <defs>
        <path d="M0,75 C0,75 4.5,71 9,71 C13.5,71 18,75 18,75 C18,75 22.7929138,71 27,71 C31.2070862,71 35,75 35,75 C35,75 39.5,71 44,71 C48.5,71 53,75 53,75 C53,75 57.7929138,71 62,71 C66.2070862,71 70,75 70,75 C70,75 74.5,71 79,71 C83.5,71 88,75 88,75 C88,75 92.7929138,71 97,71 C101.207086,71 105,75 105,75 C105,75 109.5,71 114,71 C118.5,71 123,75 123,75 C123,75 127.792914,71 132,71 C136.207086,71 140,75 140,75 L129,101 L16,101 L0,75 Z" id="path-1"></path>
        <mask id="mask-2" maskContentUnits="userSpaceOnUse" maskUnits="objectBoundingBox" x="0" y="0" width="140" height="30" fill="white">
            <use xlink:href="#path-1"></use>
        </mask>
    </defs>
    <g id="Holiday-Card" stroke="none" stroke-width="1" fill="none" fill-rule="evenodd">
        <g id="Hot-Apple-Pie" transform="translate(-633.000000, -1522.000000)">
            <g id="Group-2" transform="translate(633.000000, 1523.000000)">
                <path d="M135,73.8533853 C130.809555,67.5189919 124.111215,62.1257842 113,57 C101.888785,51.8742158 105.451672,54.4650824 103,53.4455364 C95.3504987,50.2644339 89.558959,46.0944653 79.352586,45.2248098 C76.4999422,44.9817443 73.548821,46.8533853 70.5,46.8533853 C68.3680738,46.8533853 66.2951648,44.9043806 64.2794259,45.0036687 C53.924852,45.5136979 48,48 40,51 C38.958992,51.390378 31.8343246,52.875898 30.649843,53.4455364 C22.7317502,57.2534886 12.1407203,64.8204663 6,72.8533853" id="Oval-10" stroke="#BA1820" stroke-width="2"></path>
                <use id="Rectangle-16" stroke="#BA1820" mask="url(#mask-2)" stroke-width="4" xlink:href="#path-1"></use>
                <path d="M70.5,56 C71.3284271,56 72,55.3604068 72,54.5714286 C72,53.7824504 71.3284271,52 70.5,52 C69.6715729,52 69,53.7824504 69,54.5714286 C69,55.3604068 69.6715729,56 70.5,56 Z" id="Oval-11" stroke="#BB191A" fill="#BB191A"></path>
                <path d="M76.2990381,53.4820508 C77.1274652,53.4820508 77.7990381,52.8424576 77.7990381,52.0534794 C77.7990381,51.2645012 77.1274652,49.4820508 76.2990381,49.4820508 C75.470611,49.4820508 74.7990381,51.2645012 74.7990381,52.0534794 C74.7990381,52.8424576 75.470611,53.4820508 76.2990381,53.4820508 Z" id="Oval-11-Copy" stroke="#BB191A" fill="#BB191A" transform="translate(76.299038, 51.482051) rotate(-30.000000) translate(-76.299038, -51.482051) "></path>
                <path d="M64.2990381,53.4820508 C65.1274652,53.4820508 65.7990381,52.8424576 65.7990381,52.0534794 C65.7990381,51.2645012 65.1274652,49.4820508 64.2990381,49.4820508 C63.470611,49.4820508 62.7990381,51.2645012 62.7990381,52.0534794 C62.7990381,52.8424576 63.470611,53.4820508 64.2990381,53.4820508 Z" id="Oval-11-Copy" stroke="#BB191A" fill="#BB191A" transform="translate(64.299038, 51.482051) scale(-1, 1) rotate(-30.000000) translate(-64.299038, -51.482051) "></path>
                <path d="M62.56,10 C62.56,10 58.56,14 60.56,17 C62.56,20 65.56,21 63.56,25 C61.56,29 60.1083022,29 61.56,30" id="Path-22" stroke="#BA1820" stroke-width="2"></path>
                <path d="M81.56,10 C81.56,10 77.56,14 79.56,17 C81.56,20 84.56,21 82.56,25 C80.56,29 79.1083022,29 80.56,30" id="Path-22-Copy-2" stroke="#BA1820" stroke-width="2"></path>
                <path d="M72.56,0 C72.56,0 68.56,4 70.56,7 C72.56,10 75.56,11 73.56,15 C71.56,19 70.1083022,19 71.56,20" id="Path-22-Copy" stroke="#BA1820" stroke-width="2" transform="translate(72.109782, 10.000000) scale(-1, 1) translate(-72.109782, -10.000000) "></path>
                <path d="M8,85 C8,85 96,93 133,85" id="Path-6" stroke="#BA1820" stroke-width="2"></path>
            </g>
        </g>
    </g>
</svg>