<?xml version="1.0" encoding="UTF-8"?>
<svg width="122px" height="169px" viewBox="0 0 122 169" version="1.1" xmlns="http://www.w3.org/2000/svg" xmlns:xlink="http://www.w3.org/1999/xlink">
    <!-- Generator: Sketch 41.2 (35397) - http://www.bohemiancoding.com/sketch -->
    <title>Page 1</title>
    <desc>Created with Sketch.</desc>
    <defs></defs>
    <g id="Holiday-Card" stroke="none" stroke-width="1" fill="none" fill-rule="evenodd">
        <g id="Oaxaca-Old-Fashioned" transform="translate(-659.000000, -1287.000000)" stroke="#644325" stroke-width="2">
            <g id="Page-1" transform="translate(660.000000, 1288.000000)">
                <path d="M86.061,133.0169 C88.3095,131.5394 88.668,127.0004 91.2755,121.7859 C93.8825,116.5714 102.707,117.1729 102.707,117.1729 C117.949,113.9644 114.5395,99.1234 113.537,94.9114 C112.534,90.6999 114.1385,86.2879 114.1385,86.2879 C117.3475,81.4744 140.8125,0.2499 59.479,0.2499 C-21.8545,0.2499 4.235,86.2879 4.235,86.2879 C4.235,86.2879 6.2405,93.9089 5.037,97.1179 C3.8335,100.3264 1.6275,113.7639 13.661,116.3709 C25.694,118.9779 25.8945,118.3764 26.697,119.9809 C27.499,121.5854 28.903,132.4154 31.51,133.0169 C31.51,133.0169 56.379,152.5209 86.061,133.0169 Z" id="Stroke-1" stroke-linejoin="round"></path>
                <path d="M11.1609,115.5982 C11.1609,115.5982 19.4769,119.3792 20.6804,128.6047 C21.8834,137.8302 27.0979,166.5097 56.7799,166.5097 C86.4619,166.5097 95.6794,142.9907 97.0914,130.2092 C98.5039,117.4272 106.5224,115.9807 106.5224,115.9807" id="Stroke-3"></path>
                <path d="M59.24665,98.0425 C59.24665,98.0425 49.09815,110.379 49.54915,115.795 C50.00065,121.2115 54.21315,120.9105 55.71765,120.459 C57.22215,120.0075 58.86415,117.645 59.24665,116.8705 C59.24665,116.8705 62.18665,120.756 63.84165,120.683 C65.49665,120.6095 69.85965,121.512 69.10765,115.1935 C68.35515,108.8745 59.24665,98.0425 59.24665,98.0425 Z" id="Stroke-5" stroke-linejoin="round"></path>
                <path d="M87.77205,81.42455 C87.77205,84.44305 85.32505,86.88955 82.30705,86.88955 C79.28855,86.88955 76.84205,84.44305 76.84205,81.42455 C76.84205,78.40605 79.28855,75.95955 82.30705,75.95955 C85.32505,75.95955 87.77205,78.40605 87.77205,81.42455 Z" id="Stroke-7"></path>
                <path d="M41.64195,81.42455 C41.64195,84.44305 39.19495,86.88955 36.17695,86.88955 C33.15845,86.88955 30.71195,84.44305 30.71195,81.42455 C30.71195,78.40605 33.15845,75.95955 36.17695,75.95955 C39.19495,75.95955 41.64195,78.40605 41.64195,81.42455 Z" id="Stroke-9"></path>
                <path d="M36.17685,70.3437 C36.17685,70.3437 33.61585,64.9787 32.21235,64.4777 C32.21235,64.4777 34.77685,60.4162 36.17685,60.1152 C36.17685,60.1152 39.53235,62.8227 40.23435,64.6277 C40.23435,64.6277 36.73235,68.4382 36.17685,70.3437 Z" id="Stroke-11" stroke-linejoin="round"></path>
                <path d="M30.6364,71.82825 C30.6364,71.82825 25.7364,68.46275 24.2699,68.73025 C24.2699,68.73025 24.4599,63.93075 25.5224,62.97025 C25.5224,62.97025 29.7819,63.63725 31.2924,64.84925 C31.2924,64.84925 30.1644,69.90075 30.6364,71.82825 Z" id="Stroke-13" stroke-linejoin="round"></path>
                <path d="M26.58055,75.8841 C26.58055,75.8841 20.65405,75.4196 19.51805,76.3846 C19.51805,76.3846 17.28305,72.1331 17.72255,70.7701 C17.72255,70.7701 21.74505,69.2176 23.65905,69.5121 C23.65905,69.5121 25.20805,74.4506 26.58055,75.8841 Z" id="Stroke-15" stroke-linejoin="round"></path>
                <path d="M25.096,81.42455 C25.096,81.42455 19.731,83.98555 19.23,85.38905 C19.23,85.38905 15.1685,82.82455 14.8675,81.42455 C14.8675,81.42455 17.575,78.06905 19.38,77.36705 C19.38,77.36705 23.1905,80.86905 25.096,81.42455 Z" id="Stroke-17" stroke-linejoin="round"></path>
                <path d="M26.58055,86.965 C26.58055,86.965 23.21505,91.865 23.48255,93.3315 C23.48255,93.3315 18.68305,93.1415 17.72255,92.079 C17.72255,92.079 18.38955,87.8195 19.60155,86.309 C19.60155,86.309 24.65305,87.437 26.58055,86.965 Z" id="Stroke-19" stroke-linejoin="round"></path>
                <path d="M30.6364,91.02085 C30.6364,91.02085 30.1719,96.94735 31.1369,98.08335 C31.1369,98.08335 26.8854,100.31835 25.5224,99.87885 C25.5224,99.87885 23.9699,95.85635 24.2644,93.94235 C24.2644,93.94235 29.2029,92.39335 30.6364,91.02085 Z" id="Stroke-21" stroke-linejoin="round"></path>
                <path d="M36.17685,92.5054 C36.17685,92.5054 38.73785,97.8704 40.14135,98.3714 C40.14135,98.3714 37.57685,102.4329 36.17685,102.7339 C36.17685,102.7339 32.82135,100.0264 32.11935,98.2214 C32.11935,98.2214 35.62135,94.4109 36.17685,92.5054 Z" id="Stroke-23" stroke-linejoin="round"></path>
                <path d="M41.7173,91.02085 C41.7173,91.02085 46.6173,94.38635 48.0838,94.11885 C48.0838,94.11885 47.8938,98.91835 46.8313,99.87885 C46.8313,99.87885 42.5718,99.21185 41.0613,97.99985 C41.0613,97.99985 42.1893,92.94835 41.7173,91.02085 Z" id="Stroke-25" stroke-linejoin="round"></path>
                <path d="M45.77315,86.965 C45.77315,86.965 51.69965,87.4295 52.83565,86.4645 C52.83565,86.4645 55.07065,90.716 54.63115,92.079 C54.63115,92.079 50.60865,93.6315 48.69465,93.337 C48.69465,93.337 47.14565,88.3985 45.77315,86.965 Z" id="Stroke-27" stroke-linejoin="round"></path>
                <path d="M47.2577,81.42455 C47.2577,81.42455 52.6227,78.86355 53.1237,77.46005 C53.1237,77.46005 57.1852,80.02455 57.4862,81.42455 C57.4862,81.42455 54.7787,84.78005 52.9737,85.48205 C52.9737,85.48205 49.1632,81.98005 47.2577,81.42455 Z" id="Stroke-29" stroke-linejoin="round"></path>
                <path d="M45.77315,75.8841 C45.77315,75.8841 49.13865,70.9841 48.87115,69.5176 C48.87115,69.5176 53.67065,69.7076 54.63115,70.7701 C54.63115,70.7701 53.96415,75.0296 52.75215,76.5401 C52.75215,76.5401 47.70065,75.4121 45.77315,75.8841 Z" id="Stroke-31" stroke-linejoin="round"></path>
                <path d="M41.7173,71.82825 C41.7173,71.82825 42.1818,65.90175 41.2168,64.76575 C41.2168,64.76575 45.4683,62.53075 46.8313,62.97025 C46.8313,62.97025 48.3838,66.99275 48.0893,68.90675 C48.0893,68.90675 43.1508,70.45575 41.7173,71.82825 Z" id="Stroke-33" stroke-linejoin="round"></path>
                <path d="M46.6764,81.44585 C46.6764,87.15585 42.0479,91.78435 36.3379,91.78435 C30.6279,91.78435 25.9994,87.15585 25.9994,81.44585 C25.9994,75.73585 30.6279,71.10735 36.3379,71.10735 C42.0479,71.10735 46.6764,75.73585 46.6764,81.44585 Z" id="Stroke-35"></path>
                <path d="M82.30695,70.2973 C82.30695,70.2973 79.74595,64.9323 78.34245,64.4313 C78.34245,64.4313 80.90695,60.3698 82.30695,60.0688 C82.30695,60.0688 85.66245,62.7763 86.36445,64.5813 C86.36445,64.5813 82.86245,68.3918 82.30695,70.2973 Z" id="Stroke-37" stroke-linejoin="round"></path>
                <path d="M76.76655,71.78185 C76.76655,71.78185 71.86655,68.41635 70.40005,68.68385 C70.40005,68.68385 70.59005,63.88435 71.65255,62.92385 C71.65255,62.92385 75.91205,63.59085 77.42255,64.80285 C77.42255,64.80285 76.29455,69.85435 76.76655,71.78185 Z" id="Stroke-39" stroke-linejoin="round"></path>
                <path d="M72.71065,75.8377 C72.71065,75.8377 66.78415,75.3732 65.64815,76.3382 C65.64815,76.3382 63.41315,72.0867 63.85265,70.7237 C63.85265,70.7237 67.87515,69.1712 69.78915,69.4657 C69.78915,69.4657 71.33815,74.4042 72.71065,75.8377 Z" id="Stroke-41" stroke-linejoin="round"></path>
                <path d="M71.2261,81.37815 C71.2261,81.37815 65.8611,83.93915 65.3601,85.34265 C65.3601,85.34265 61.2986,82.77815 60.9976,81.37815 C60.9976,81.37815 63.7051,78.02265 65.5101,77.32065 C65.5101,77.32065 69.3206,80.82265 71.2261,81.37815 Z" id="Stroke-43" stroke-linejoin="round"></path>
                <path d="M72.71065,86.9186 C72.71065,86.9186 69.34515,91.8186 69.61265,93.2851 C69.61265,93.2851 64.81315,93.0951 63.85265,92.0326 C63.85265,92.0326 64.51965,87.7731 65.73165,86.2626 C65.73165,86.2626 70.78315,87.3906 72.71065,86.9186 Z" id="Stroke-45" stroke-linejoin="round"></path>
                <path d="M76.76655,90.97445 C76.76655,90.97445 76.30205,96.90095 77.26705,98.03695 C77.26705,98.03695 73.01555,100.27195 71.65255,99.83245 C71.65255,99.83245 70.10005,95.80995 70.39455,93.89595 C70.39455,93.89595 75.33305,92.34695 76.76655,90.97445 Z" id="Stroke-47" stroke-linejoin="round"></path>
                <path d="M82.30695,92.459 C82.30695,92.459 84.86795,97.824 86.27145,98.325 C86.27145,98.325 83.70695,102.3865 82.30695,102.6875 C82.30695,102.6875 78.95145,99.98 78.24945,98.175 C78.24945,98.175 81.75145,94.3645 82.30695,92.459 Z" id="Stroke-49" stroke-linejoin="round"></path>
                <path d="M87.8474,90.97445 C87.8474,90.97445 92.7474,94.33995 94.2139,94.07245 C94.2139,94.07245 94.0239,98.87195 92.9614,99.83245 C92.9614,99.83245 88.7019,99.16545 87.1914,97.95345 C87.1914,97.95345 88.3194,92.90195 87.8474,90.97445 Z" id="Stroke-51" stroke-linejoin="round"></path>
                <path d="M91.9033,86.9186 C91.9033,86.9186 97.8298,87.3831 98.9658,86.4181 C98.9658,86.4181 101.2008,90.6696 100.7613,92.0326 C100.7613,92.0326 96.7388,93.5851 94.8248,93.2906 C94.8248,93.2906 93.2758,88.3521 91.9033,86.9186 Z" id="Stroke-53" stroke-linejoin="round"></path>
                <path d="M93.38785,81.37815 C93.38785,81.37815 98.75285,78.81715 99.25385,77.41365 C99.25385,77.41365 103.31535,79.97815 103.61635,81.37815 C103.61635,81.37815 100.90885,84.73365 99.10385,85.43565 C99.10385,85.43565 95.29335,81.93365 93.38785,81.37815 Z" id="Stroke-55" stroke-linejoin="round"></path>
                <path d="M91.9033,75.8377 C91.9033,75.8377 95.2688,70.9377 95.0013,69.4712 C95.0013,69.4712 99.8008,69.6612 100.7613,70.7237 C100.7613,70.7237 100.0943,74.9832 98.8823,76.4937 C98.8823,76.4937 93.8308,75.3657 91.9033,75.8377 Z" id="Stroke-57" stroke-linejoin="round"></path>
                <path d="M87.8474,71.78185 C87.8474,71.78185 88.3119,65.85535 87.3469,64.71935 C87.3469,64.71935 91.5984,62.48435 92.9614,62.92385 C92.9614,62.92385 94.5139,66.94635 94.2194,68.86035 C94.2194,68.86035 89.2809,70.40935 87.8474,71.78185 Z" id="Stroke-59" stroke-linejoin="round"></path>
                <path d="M92.8065,81.3995 C92.8065,87.1095 88.178,91.738 82.468,91.738 C76.758,91.738 72.1295,87.1095 72.1295,81.3995 C72.1295,75.6895 76.758,71.061 82.468,71.061 C88.178,71.061 92.8065,75.6895 92.8065,81.3995 Z" id="Stroke-61"></path>
                <path d="M0.25,58.0096 C0.25,58.0096 28.953,58.0096 40.2345,40.7116 C51.5155,23.4141 48.7865,0.7941 48.7865,0.7941" id="Stroke-63" stroke-linejoin="round"></path>
                <path d="M23.02315,24.82425 C23.02315,28.43225 20.09815,31.35775 16.48965,31.35775 C12.88165,31.35775 9.95665,28.43225 9.95665,24.82425 C9.95665,21.21625 12.88165,18.29075 16.48965,18.29075 C20.09815,18.29075 23.02315,21.21625 23.02315,24.82425 Z" id="Stroke-65" stroke-linejoin="round"></path>
                <path d="M0.25,51.2409 C0.25,51.2409 5.789,51.5419 8.948,47.7814" id="Stroke-67" stroke-linejoin="round"></path>
                <path d="M14.8677,31.35755 C14.8677,31.35755 -0.0508,42.45305 13.9887,56.32305 C13.9887,56.32305 22.0567,51.09055 23.0232,45.82605" id="Stroke-69" stroke-linejoin="round"></path>
                <path d="M16.4899,31.35755 C16.4899,31.35755 10.6424,47.78155 33.6359,47.78155" id="Stroke-71" stroke-linejoin="round"></path>
                <path d="M23.02315,22.36105 C23.02315,22.36105 40.79315,16.98755 41.64215,38.40105" id="Stroke-73" stroke-linejoin="round"></path>
                <path d="M38.65495,27.2737 C38.65495,27.2737 45.28995,25.8327 48.40295,17.2527 C48.40295,17.2527 32.89145,6.3812 22.12295,21.5157" id="Stroke-75" stroke-linejoin="round"></path>
                <path d="M41.0613,1.994 C41.0613,1.994 43.0923,11.505 39.1813,13.4735" id="Stroke-77" stroke-linejoin="round"></path>
                <path d="M119.2295,57.7085 C119.2295,57.7085 90.5265,57.7085 79.245,40.4105 C67.964,23.113 70.693,0.493 70.693,0.493" id="Stroke-79" stroke-linejoin="round"></path>
                <path d="M96.45635,24.5232 C96.45635,28.1312 99.38135,31.0567 102.98985,31.0567 C106.59785,31.0567 109.52285,28.1312 109.52285,24.5232 C109.52285,20.9152 106.59785,17.9897 102.98985,17.9897 C99.38135,17.9897 96.45635,20.9152 96.45635,24.5232 Z" id="Stroke-81" stroke-linejoin="round"></path>
                <path d="M119.2295,50.9398 C119.2295,50.9398 113.6905,51.2408 110.5315,47.4803" id="Stroke-83" stroke-linejoin="round"></path>
                <path d="M104.6118,31.05645 C104.6118,31.05645 119.5303,42.15195 105.4908,56.02195 C105.4908,56.02195 97.4228,50.78945 96.4563,45.52495" id="Stroke-85" stroke-linejoin="round"></path>
                <path d="M102.9896,31.05645 C102.9896,31.05645 108.8371,47.48045 85.8436,47.48045" id="Stroke-87" stroke-linejoin="round"></path>
                <path d="M96.45635,22.06 C96.45635,22.06 78.68635,16.6865 77.83735,38.1" id="Stroke-89" stroke-linejoin="round"></path>
                <path d="M80.82455,26.97265 C80.82455,26.97265 74.18955,25.53165 71.07655,16.95165 C71.07655,16.95165 86.58805,6.08015 97.35655,21.21465" id="Stroke-91" stroke-linejoin="round"></path>
                <path d="M78.4182,1.6929 C78.4182,1.6929 76.3872,11.2039 80.2982,13.1724" id="Stroke-93" stroke-linejoin="round"></path>
                <path d="M37.82735,126.67205 C37.82735,126.67205 36.50235,137.02355 36.33785,142.79205" id="Stroke-95"></path>
                <path d="M48.4028,127.1768 C48.4028,127.1768 46.3498,146.4378 46.6763,149.1533" id="Stroke-97"></path>
                <path d="M58.84175,127.95315 L58.84175,151.56865 C32.32425,149.31215 32.21225,133.96965 32.21225,133.96965 C32.46275,131.71365 33.46575,127.20115 36.13025,126.74965 C38.79525,126.29865 58.84175,127.95315 58.84175,127.95315 L58.81475,127.94215 C58.81475,127.94215 78.86075,126.28765 81.52575,126.73915 C84.19075,127.19015 85.19325,131.70265 85.44425,133.95865 C85.44425,133.95865 85.33175,149.30115 58.81475,151.55765" id="Stroke-99" stroke-linejoin="round"></path>
                <path d="M80.67465,127.1133 C80.67465,127.1133 81.99965,137.4648 82.16415,143.2333" id="Stroke-101"></path>
                <path d="M70.0992,127.61805 C70.0992,127.61805 72.1522,146.87905 71.8257,149.59455" id="Stroke-103"></path>
            </g>
        </g>
    </g>
</svg>