<?xml version="1.0" encoding="UTF-8"?>
<svg width="170px" height="93px" viewBox="0 0 170 93" version="1.1" xmlns="http://www.w3.org/2000/svg" xmlns:xlink="http://www.w3.org/1999/xlink">
    <!-- Generator: Sketch 41.2 (35397) - http://www.bohemiancoding.com/sketch -->
    <title>Page 1</title>
    <desc>Created with Sketch.</desc>
    <defs></defs>
    <g id="Holiday-Card" stroke="none" stroke-width="1" fill="none" fill-rule="evenodd" stroke-linejoin="round">
        <g id="Paper-Plane" transform="translate(-635.000000, -1243.000000)" stroke-width="2" stroke="#266196">
            <g id="Page-1" transform="translate(636.000000, 1244.000000)">
                <polyline id="Stroke-1" points="116 67.2830858 116.674546 69.6604091 117.400591 72.0223727 118.168003 74.3723901 118.895737 76.7360604 119.484171 79.136423 120.212748 81.49924 121.023217 83.8364577 121.702828 86.2154876 122.314901 88.6184102 123.055298 91 123.968763 88.6969147 124.846771 86.3946828 126.771634 81.8610437 130.380751 76.7360604 130.380751 72.6939282 132.314901 68.1602891 133.180245 65.8503773 134.148586 63.5814245 135.06965 61.288579 136 59"></polyline>
                <polyline id="Stroke-3" points="123 91 120.993084 89.6832577 118.990403 88.3554072 116.992802 87.0232844 115.013831 85.6595461 112.973044 84.3897997 110.973749 83.0653672 109.029497 81.649506 106.982782 80.385741 104.993649 79.0339653 102.989274 77.7035514 100.989133 76.3611749 99 75"></polyline>
                <polygon id="Stroke-5" points="168 58.8274929 162.099793 56.7966911 156.175799 54.4943188 150.08529 52.665914 144.117968 50.491641 138.135353 48.3575058 132.084774 46.4103956 126.122549 44.2198967 120.202803 41.8953204 114.147975 39.9652901 108.205291 37.7098875 102.135171 35.8225571 96.144911 33.6978158 90.1886331 31.481697 84.1890275 29.3851376 78.1197579 27.4841432 72.1311966 25.3568399 66.1757683 23.1313272 60.1829592 21.0117099 54.153619 18.9928641 48.1659073 16.8689768 42.1739478 14.7485055 36.1403597 12.7501556 30.1517985 10.6194364 24.173432 8.45284931 18.2069593 6.26405836 12.1988581 4.18030889 6.22304032 1.98724796 0 0 6.02509242 2.71741427 11.9711756 5.19314777 17.8628868 7.80466658 23.8871296 10.102769 29.7176724 12.8560511 35.6917911 15.2728589 41.5325286 18.0064991 47.5007004 20.4378248 53.3949603 23.0459276 59.3257513 25.5711928 65.2081174 28.2074775 71.0921825 30.8403462 77.0093806 33.3963553 83.0302252 35.7140996 88.8862548 38.407602 94.86717 40.8141619 100.68327 43.6058738 106.6353 46.0798993 112.603472 48.5206189 118.477342 51.1748375 124.351213 53.8410121 130.304093 56.3355335 136.239981 58.8915425 142.618491 58.990606 148.990205 58.9684022 155.360219 58.8266389 161.734482 59"></polygon>
                <polygon id="Stroke-7" points="78.2526628 85 75.8631163 78.4625729 71.5510633 73.7539541 67.1328648 69.1487283 62.7503312 64.5070607 58.2820321 59.9450565 53.8935544 55.3084738 50.6013469 50.5930751 45.0104535 46.1387014 40.5998975 41.5300857 36 37.9757395 31.7456682 32.3314988 27.4404085 27.6144052 23.0052267 25.2228065 18.4961678 18.4954818 14.1722265 13.7978803 9.82875444 9.11214352 5.35960616 4.53912209 1 0 6.49239047 3.0204315 11.9584569 6.28239583 17.5281212 9.3663886 23.0052267 12.6114032 28.4806339 15.8640453 34.03841 18.9683776 39.6148677 22.0455905 45.1335822 25.2228065 50.6013469 28.4890082 56.1209107 31.6645292 61.6701951 34.7892012 67.1778705 37.9757395 72.7042275 41.1351583 78.2526628 44.2623727 83.71788 47.5336594 89.306226 50.5930751 94.8317338 53.7626638 100.292705 57.0390353 105.784247 60.2721852 111.319095 63.4383839 117 66.554581 111.319095 69.1487283 104.665898 71.9445766 98.625797 74.7972064 94.8317338 78.4625729 86.4717177 80.3778858"></polygon>
            </g>
        </g>
    </g>
</svg>