<?xml version="1.0" encoding="UTF-8"?>
<svg width="221px" height="79px" viewBox="0 0 221 79" version="1.1" xmlns="http://www.w3.org/2000/svg" xmlns:xlink="http://www.w3.org/1999/xlink">
    <!-- Generator: Sketch 41.2 (35397) - http://www.bohemiancoding.com/sketch -->
    <title>Page 1</title>
    <desc>Created with Sketch.</desc>
    <defs></defs>
    <g id="Holiday-Card" stroke="none" stroke-width="1" fill="none" fill-rule="evenodd" strokeLinecap="round" stroke-linejoin="round">
        <g id="Remember-The-Maine" transform="translate(-606.000000, -1438.000000)" stroke-width="2">
            <g id="Page-1" transform="translate(714.369966, 1475.094316) rotate(-6.000000) translate(-714.369966, -1475.094316) translate(603.869966, 1445.594316)">
                <path d="M7.46504236,58.805388 C7.46504236,58.805388 198.881387,59.088187 205.782866,58.3816247 C212.684346,57.6741922 220.290712,50.8896278 220.290712,50.8896278 L215.079055,44.3869922 L212.966127,29.4029986 L170.287934,29.543963 L164.231799,27.4234059 L146.06166,27.7062049 L143.104255,18.8010834 L133.244504,19.0838824 L127.188369,22.900363 L126.2017,5.08924993 L121.272691,2.96869287 L118.736658,22.3347651 L111.835178,21.6282028 L110.004032,17.810852 L109.581793,2.82685832 L103.666116,3.67525517 L102.820771,22.7585284 L91.2711974,21.9110017 L88.7360309,28.4127672 L52.8188596,27.7062049 L25.0716179,29.4029986 L4.08453131,28.9783651 L1.26758327,44.1041933 L5.07033307,50.8896278 L6.25277607e-13,53.4339482 L0.281781506,58.2397901 L7.46504236,58.805388 Z" id="Stroke-1" stroke="#58324A"></path>
                <path d="M179.439157,29.5137687 L179.021253,0.423763352" id="Stroke-3" stroke="#61375B"></path>
                <path d="M176.204132,5.08890187 L181.274465,5.37170082" id="Stroke-5" stroke="#61375B"></path>
                <path d="M46.1989883,-2.27373675e-13 L47.268891,28.0458246" id="Stroke-7" stroke="#61375B"></path>
                <path d="M43.3819536,5.51301328 L50.1429757,6.07861119" id="Stroke-9" stroke="#61375B"></path>
                <path d="M2.90035537,35.3375128 L213.99632,36.708" id="Stroke-11" stroke="#58324A"></path>
                <path d="M215.078882,44.3867312 L1.26740986,44.1039322" id="Stroke-13" stroke="#58324A"></path>
                <path d="M127.188109,22.9001889 L118.737264,22.334591" id="Stroke-15" stroke="#5A334C"></path>
                <path d="M111.835352,21.6279417 L102.820944,22.7591375" id="Stroke-17" stroke="#5A334C"></path>
                <path d="M146.062094,27.7063789 L88.7355974,28.4129412" id="Stroke-19" stroke="#61375B"></path>
            </g>
        </g>
    </g>
</svg>