<?xml version="1.0" encoding="UTF-8"?>
<svg width="78px" height="104px" viewBox="0 0 78 104" version="1.1" xmlns="http://www.w3.org/2000/svg" xmlns:xlink="http://www.w3.org/1999/xlink">
    <!-- Generator: Sketch 41.2 (35397) - http://www.bohemiancoding.com/sketch -->
    <title>Group 4</title>
    <desc>Created with Sketch.</desc>
    <defs></defs>
    <g id="Holiday-Card" stroke="none" stroke-width="1" fill="none" fill-rule="evenodd">
        <g id="The-Rose-Jack" transform="translate(-663.000000, -1314.000000)">
            <g id="Group-4" transform="translate(701.895210, 1365.439834) rotate(5.000000) translate(-701.895210, -1365.439834) translate(659.895210, 1307.439834)">
                <g id="Page-1" transform="translate(41.850818, 57.721638) rotate(12.000000) translate(-41.850818, -57.721638) translate(10.350818, 5.721638)">
                    <g id="Group-7" transform="translate(-0.000000, 11.314681)" stroke-width="2" stroke="#679B87" stroke-linejoin="round">
                        <polygon id="Stroke-1" points="31.6788896 2.26045184 23.2452316 2.42131929 14.8563608 3.36755377 6.77416847 5.80636501 0.1190938 10.8296788 7.370066 11.6453981 13.6182603 15.4326125 17.6574587 21.5235701 24.2100542 19.4406402 30.9524259 17.9897979 37.8170136 17.319011 44.6975425 17.7689846 51.3852587 19.5134858 57.0170597 15.9918545 62.9228976 13.0825819 58.9535369 6.94381929 53.1327187 2.50782349 46.1466742 0.342183389 38.8106822 0.462075167"></polygon>
                        <polyline id="Stroke-3" points="21.0850461 20.3081103 22.6207158 27.8954387 23.8201019 35.5411954 24.6611904 43.2408276 24.9587596 50.9791589 24.6171623 58.7121786 22.9144895 66.2456317 18.6877921 72.575614 11.4557975 75.2663498 4.0803321 77.4418544 9.33333959 81.4954106 15.1647852 84.6611606 21.6232516 86.0050108 29.2127847 87.3435494 36.8934104 86.4155264 44.2521755 83.9547097 53.0076941 84.1937344 60.4287059 79.6810989 55.2880459 74.2981098 50.9748106 68.2215696 47.4305487 61.6700151 44.818468 54.6942865 43.201574 47.420346 42.7073966 39.9825029 43.1894284 32.5416246 44.7273754 25.2418846 47.1193156 18.175099"></polyline>
                        <polyline id="Stroke-5" points="4.10720442 77.4322175 8.71269524 84.0695174 14.9487439 89.2036173 22.5914143 91.7699084 30.6379287 91.1256798 37.4197739 91.2584713 44.178846 90.5922372 50.6805814 88.645134 56.4444667 85.1113618 60.4517826 79.6881559"></polyline>
                    </g>
                    <polygon id="Fill-8" fill="#679A87" points="28.0309676 -1.67688086e-12 25.3688037 1.66731492 27.7691521 8.73330147 29.0618196 16.1102976 30.5111287 16.114849 29.5116052 8.02328929"></polygon>
                    <g id="Group-15" transform="translate(29.082912, 50.773238)" fill="#679A87">
                        <path d="M2.14831096,3.05536733 C2.14831096,4.51242925 1.67473307,5.69414089 1.09080693,5.69414089 C0.506880796,5.69414089 0.0333029062,4.51242925 0.0333029062,3.05536733 C0.0333029062,1.59830541 0.506880796,0.41659378 1.09080693,0.41659378 C1.67473307,0.41659378 2.14831096,1.59830541 2.14831096,3.05536733" id="Fill-9"></path>
                        <path d="M10.5501972,3.64011074 C10.5501972,5.09717266 10.0766193,6.27888429 9.49269321,6.27888429 C8.90876708,6.27888429 8.43518919,5.09717266 8.43518919,3.64011074 C8.43518919,2.18304882 8.90876708,1.00133719 9.49269321,1.00133719 C10.0766193,1.00133719 10.5501972,2.18304882 10.5501972,3.64011074" id="Fill-11"></path>
                        <path d="M7.40833745,7.20735015 C7.40833745,8.66441207 6.93475956,9.84612371 6.35083342,9.84612371 C5.76690729,9.84612371 5.2933294,8.66441207 5.2933294,7.20735015 C5.2933294,5.75028824 5.76690729,4.5685766 6.35083342,4.5685766 C6.93475956,4.5685766 7.40833745,5.75028824 7.40833745,7.20735015" id="Fill-13"></path>
                    </g>
                </g>
            </g>
        </g>
    </g>
</svg>