<?xml version="1.0" encoding="UTF-8"?>
<svg width="187px" height="50px" viewBox="0 0 187 50" version="1.1" xmlns="http://www.w3.org/2000/svg" xmlns:xlink="http://www.w3.org/1999/xlink">
    <!-- Generator: Sketch 41.2 (35397) - http://www.bohemiancoding.com/sketch -->
    <title>Page 1</title>
    <desc>Created with Sketch.</desc>
    <defs></defs>
    <g id="Holiday-Card" stroke="none" stroke-width="1" fill="none" fill-rule="evenodd">
        <g id="The-Martinez" transform="translate(-621.000000, -1498.000000)" stroke-width="2" stroke="#722916">
            <g id="Page-1" transform="translate(712.730413, 1522.627248) rotate(-2.000000) translate(-712.730413, -1522.627248) translate(622.730413, 1500.127248)">
                <polygon id="Stroke-1" points="174.860314 34.6411428 171.944395 33.3127056 169.202971 31.7092962 167.113466 29.2818628 165.20377 26.6615919 163.939791 23.6610022 162.303795 20.8023625 161.67402 17.578581 160.990214 14.3797971 159.962734 11.239043 159.406477 7.98937134 156.285062 7.38586089 153.448862 5.83958855 150.352249 5.39052678 147.391157 4.36473757 144.229883 4.3558099 141.178443 3.75944158 138.101317 3.30234491 135.067592 2.52028107 131.990465 2.01497498 128.840706 2.11942871 125.766237 1.45699565 122.609392 1.88463101 119.553524 1.07310586 116.432109 0.968652129 113.323095 0.789205975 110.207881 0.767779568 107.109496 0.40263789 104.000482 0.0116059702 100.926013 0.33835867 97.8692583 0.256224112 95.8763006 2.64973228 94.3085073 5.36999314 92.1578845 7.73404 89.9886608 10.1400469 87.9974746 7.57691302 85.8725388 5.244113 83.7112869 2.86846018 82.3117878 -4.54747351e-13 79.1939162 0.232119404 76.0627582 0.447276237 72.9333718 0.166947418 69.8509306 0.93651252 66.714458 0.470488177 63.5939292 0.610652587 60.5478041 1.48020759 57.4432189 1.80428198 54.3404052 2.14353342 51.1933036 1.77839174 48.094033 2.15067556 44.9699611 2.29441103 41.8644901 2.68990679 38.8785966 3.76211988 35.7651538 4.03798487 32.6286813 4.20403952 29.7012479 5.40034722 26.5382026 5.64407259 23.6701151 6.94126295 20.7940557 8.08846847 20.0659618 11.2586839 19.8640088 14.5779914 18.8161559 17.7008901 17.5052327 20.712193 16.2385973 23.7136754 14.6849761 26.5741007 13.0959245 29.4291694 10.8886131 31.7592911 8.24816566 33.5082215 5.20735511 34.180475 3.00447255 33.3421669 1 32.1967469 2.51641936 34.7795217 4.11078551 37.5613834 6.81677916 39.2951368 9.4474833 41.1226308 12.5883846 41.8832682 15.5184753 43.0974312 18.5752295 44.048228 21.7524469 44.3999782 24.9562371 44.1580384 28.1237112 44.3008811 31.2982714 44.4955043 34.4949755 44.8570749 37.6066467 43.9312756 40.8378955 44.166966 43.9973977 43.7437945 47.1958734 43.5295304 50.2703427 42.5814119 53.352784 41.7511387 56.5105147 41.2761867 59.5327243 40.2084374 62.7241139 39.8593655 65.744552 38.8067933 68.9102545 38.2934523 71.966123 37.3837228 74.9865611 36.3436493 78.1354342 35.716927 80.9556908 34.0974477 83.9176688 32.8913196 87.0063103 32.043191 90.0630645 31.292374 93.0099846 32.3520884 96.0437091 33.3180622 99.0366886 34.4045595 102.079271 35.37589 105.119195 36.3463276 108.147605 37.3239074 111.310651 37.8890289 114.353233 38.8050078 117.386957 39.8022285 120.530516 40.3486018 123.601442 41.2101219 126.597965 42.3983947 129.805298 42.6394418 132.937342 43.2384884 136.0747 43.8562831 139.271404 43.9634152 142.461908 44.0000186 145.588637 44.8561821 148.78357 44.8267208 151.974959 44.9749201 155.145091 44.5303222 158.273591 43.9839488 161.437522 43.7125477 164.574881 43.1652815 167.662636 42.3501853 170.737992 41.3654634 173.366038 39.48976 175.707099 37.3051593 177.243891 34.5429384 179.641641 32.0494404 177.064082 33.3859125"></polygon>
                <polyline id="Stroke-3" points="90.1114033 9 87.1002507 9.36045094 84.0899848 9.72982394 81.0717388 10.0278205 78.0792065 10.5221022 75.0627338 10.8397273 72.0781815 11.390218 69.0785558 11.8211532 66.0851367 12.2958064 63.0952644 12.7972258 60.105392 13.2959685 57.1013329 13.7188739 54.1283074 14.3255735 51.193409 15.1169596 48.20797 15.6603126 45.2579981 16.3767535 42.2486189 16.8255327 39.3633743 17.7980365 36.4045357 18.4752203 33.5184045 19.4138203 30.605673 20.2658764 27.7346152 21.2481944 24.8564641 22.1966087 21.9658995 23.1423463 19.1728693 24.3548533 16.6618021 26.0982225 14 27.5560859"></polyline>
                <polyline id="Stroke-4" points="84.7110048 3.00060917 81.6083298 3.32194227 78.5198102 3.7472907 75.4569471 4.38624205 72.3410015 4.60634594 69.2984867 5.34281167 66.2205835 5.84059935 63.1373721 6.31795545 60.0630078 6.84824793 56.9957212 7.43704903 53.9319734 8.0332798 50.8691103 8.64065507 47.8177484 9.31489735 44.7486924 9.90091233 41.707947 10.6327345 38.6371216 11.214106 35.5645267 11.7964061 32.5494379 12.6396733 29.5157702 13.4142161 26.5617263 14.4701575 23.5952965 15.4815209 20.8261569 16.9720978 18.0348995 18.4115958"></polyline>
                <polyline id="Stroke-7" points="89.1651329 13.9993908 86.0631657 14.7009633 82.9301788 15.2434072 79.8450509 16.0082794 76.6757267 16.3537907 73.5861674 17.1010796 70.4824276 17.7797939 67.356531 18.3459751 64.2545638 19.0361185 61.1162592 19.5574624 58.0134058 20.2388141 54.9078935 20.9008243 51.8112439 21.6015176 48.7509317 22.4894727 45.6241488 23.0653248 42.5177502 23.7352474 39.3998301 24.3532993 36.3217923 25.1471839 33.2286879 25.8742522 30.1595129 26.6936325 27.0690673 27.4321299 23.9600099 28.1020524 20.8615878 28.8229665 17.8083658 29.7118008 14.7737556 30.6692099 11.8836085 31.9633385 8.9651005 33.1844966"></polyline>
                <polyline id="Stroke-8" points="90.2161219 19.9981725 87.344278 20.9167993 84.3801661 21.4409726 81.4852552 22.2572356 78.5113842 22.7372866 75.5800984 23.4052986 72.7259984 24.3821669 69.792051 25.040472 66.8607652 25.6934825 63.9330282 26.3694365 61.0496509 27.2307044 58.0793286 27.7389936 55.1178782 28.2781684 52.2637782 29.2700383 49.2792609 29.7165563 46.3648317 30.4569289 43.4486282 31.190242 40.5501686 31.9967981 37.615334 32.6480437 34.7124384 33.4263615 31.7882502 34.1305539 28.8906777 34.9256382 25.9913309 35.7127805 23.1017432 36.5352207 20.2201402 37.3797221 16.83195 38.1209771 13.3976258 38.5542584 11.0900367 38.478368 8.77801162 38.2454021 6.48461763 37.8853639 3.70592904 36.1151762 0.89530151 34.3891107"></polyline>
                <g id="Group-15" transform="translate(24.000000, 27.000000)">
                    <polyline id="Stroke-11" points="66.1382213 0.0385835065 63.0652982 0.524158248 60.0780039 1.36932077 57.0889439 2.1969851 54.0486834 2.82779481 51.0693339 3.7062039 48.0202456 4.30376705 45.0082337 5.04306553 42.0191738 5.87335459 38.9762649 6.49279048 35.9457148 7.16822057 32.986669 8.12099695 29.9552361 8.79817686 26.9317482 9.50510369 23.9170879 10.2619004 20.9580422 11.2068026 17.9257265 11.8761083 14.9251906 12.6626519 11.9202408 13.4386966 8.96119511 14.380974 5.97654904 15.2305111 2.99543406 16.081798 0.0275606249 16.9750805"></polyline>
                </g>
                <polyline id="Stroke-16" points="96.0348995 3.00060917 99.0797485 3.27508846 102.102603 3.71567657 105.111382 4.25308748 108.150073 4.5915231 111.16677 5.06497767 114.177308 5.57662838 117.182568 6.13180493 120.191347 6.6656627 123.199246 7.21106815 126.237057 7.58325851 129.243196 8.15087102 132.224702 8.84373135 135.20269 9.54991593 138.237861 9.98695091 141.17186 10.8832279 144.179759 11.4508404 147.133113 12.2485181 150.11286 12.9547027 152.994954 13.9859987 155.935111 14.8440795 158.635974 16.2875386 161.452965 17.468066"></polyline>
                <polyline id="Stroke-19" points="89.9651005 13.9993908 93.1598161 14.3129879 96.2915772 14.9419194 99.407378 15.6472957 102.567513 16.1285499 105.700161 16.7548753 108.815962 17.4663324 111.957476 18.050092 115.075937 18.7485188 118.246712 19.1958941 121.361626 19.9082198 124.46856 20.6492124 127.626035 21.1547899 130.75159 21.8245499 133.871824 22.5195018 136.964571 23.3239087 140.066185 24.0926993 143.246714 24.5348625 146.346554 25.3140774 149.428661 26.158444 152.558649 26.8116988 155.655829 27.5952572 158.714883 28.5195433 161.820043 29.2813843 164.898604 30.1465995 167.867215 31.3063006 170.794153 32.5554767"></polyline>
                <polyline id="Stroke-20" points="89.8953015 19.9981725 92.8440883 20.5890681 95.7316454 21.4236412 98.6946305 21.9154591 101.607034 22.6125732 104.491042 23.4632129 107.443378 23.9916271 110.344246 24.7485448 113.269961 25.4019218 116.205437 26.0276285 119.099206 26.8122164 122.020484 27.4816601 124.954185 28.1073668 127.833756 28.9624695 130.715101 29.8077537 133.639928 30.4709492 136.611787 30.9467005 139.460299 31.916055 142.346082 32.7363466 145.287769 33.3361681 148.185975 34.1064747 151.051348 34.9910329 153.921157 35.8523838 156.776768 36.732479 159.675861 37.4822559 161.957333 37.9151628 164.282287 38.0981441 166.55666 38.5542584 168.861204 38.3177216 171.166635 37.9767517 173.505787 37.9276591 176.356961 36.1853204 179.216122 34.4644039"></polyline>
                <g id="Group-26" transform="translate(90.000000, 26.000000)">
                    <polyline id="Stroke-22" points="0.13217818 0.101461843 3.19758745 0.696839201 6.19176949 1.59403343 9.20881459 2.39123362 12.2153075 3.23338526 15.2666472 3.8883921 18.3091934 4.58284612 21.3227211 5.39839384 24.3054716 6.34053952 27.3700016 6.93775163 30.3967195 7.70284364 33.3917809 8.60095525 36.4220162 9.3568735 39.4161982 10.266911 42.4490716 11.0164076 45.4766689 11.7778301 48.5156977 12.4897143 51.5345015 13.290584 54.5049411 14.2730942 57.4797775 15.2400091 60.5152889 15.9821667 63.4962807 16.9123865 66.4781519 17.837102"></polyline>
                </g>
                <polyline id="Stroke-27" points="90.2694024 30.0721654 90.248885 27.7299221 90.2363961 25.3832207 90.352364 23.0338446 90.1659233 20.6933845 90.2881356 18.3448999 90.1864407 15.9981986 90.1347012 13.6514973 90 11.3012295 90.0722569 9 93.0990192 9.19080322 96.1516513 9.52515467 99.1846581 9.8559397 102.183767 10.4399402 105.204284 10.858994 108.24532 11.1327164 111.272082 11.5036236 114.279219 12.013621 117.295277 12.4790382 120.297953 13.0157837 123.264055 13.7513569 126.276545 14.2310398 129.289926 14.7223135 132.286359 15.306314 135.233727 16.1123239 138.209642 16.787268 141.153443 17.5879283 144.119545 18.3083442 147.029448 19.2311542 149.950947 20.1058175 152.863525 21.0054458 155.808218 21.8328542 158.537032 23.2335638 161.383598 24.3231037 164.017854 25.8495295 166.740423 27.2288407"></polyline>
            </g>
        </g>
    </g>
</svg>