<?xml version="1.0" encoding="UTF-8"?>
<svg width="120px" height="120px" viewBox="0 0 120 120" version="1.1" xmlns="http://www.w3.org/2000/svg" xmlns:xlink="http://www.w3.org/1999/xlink">
    <!-- Generator: Sketch 41.2 (35397) - http://www.bohemiancoding.com/sketch -->
    <title>Group 6</title>
    <desc>Created with Sketch.</desc>
    <defs></defs>
    <g id="Holiday-Card" stroke="none" stroke-width="1" fill="none" fill-rule="evenodd">
        <g id="The-Last-Word" transform="translate(-656.000000, -1308.000000)" stroke-width="2" stroke="#727346">
            <g id="Group-6" transform="translate(657.000000, 1309.000000)">
                <g id="Group-5">
                    <g id="Group-7">
                        <path d="M37,82 L81,38" id="Line-Copy-4" stroke-linecap="square"></path>
                        <path d="M57,29.4915586 L57,91.4056604" id="Line-Copy-4" stroke-linecap="square"></path>
                        <path d="M89,60 L27,60" id="Line-Copy-4" stroke-linecap="square"></path>
                        <path d="M81,82 L37,38" id="Line-Copy-4" stroke-linecap="square"></path>
                        <circle id="Oval-9" cx="58.5" cy="59.5" r="52.5"></circle>
                        <path d="M59,118 C65.0340515,118 70.0376416,116.143078 75.52,114.46 C99.6432151,107.054201 118,85.5507488 118,59 C118,26.4151998 88.0448002,0 55.46,0 C22.8751998,0 0,26.4151998 0,59 C0,91.5848002 26.4151998,118 59,118 Z" id="Oval-9"></path>
                        <circle id="Oval-9" cx="59" cy="59" r="33"></circle>
                        <path d="M57.2131124,54 C47.1239226,60.5896031 57.7790063,70.366039 62.0175274,65.8470594 C73.3263067,53.7899902 57.2001031,54.033382 54.8378527,54.2245521" id="Path-5" fill="#FAF7EE"></path>
                    </g>
                </g>
            </g>
        </g>
    </g>
</svg>