<?xml version="1.0" encoding="UTF-8"?>
<svg width="136px" height="142px" viewBox="0 0 136 142" version="1.1" xmlns="http://www.w3.org/2000/svg" xmlns:xlink="http://www.w3.org/1999/xlink">
    <!-- Generator: Sketch 41.2 (35397) - http://www.bohemiancoding.com/sketch -->
    <title>Page 1</title>
    <desc>Created with Sketch.</desc>
    <defs></defs>
    <g id="Holiday-Card" stroke="none" stroke-width="1" fill="none" fill-rule="evenodd">
        <g id="Three-Dots-and-a-Dash" transform="translate(-652.000000, -1253.000000)">
            <g id="Page-1" transform="translate(653.000000, 1253.000000)">
                <path d="M42.5231403,130.553793 C44.5056488,128.508518 46.044655,125.070061 45.9881129,119.394227 C45.8396898,104.256907 51.7907493,94.3883046 51.7907493,94.3883046 C53.7255504,91.1234443 52.7581499,89.4914547 52.7581499,89.4914547 C49.6333135,89.7135181 45.393537,90.7524575 41.0044539,99.3600569 C36.6153709,107.966775 35.6479703,105.666833 35.6479703,105.666833 C35.6479703,105.666833 33.4905345,105.889778 34.234417,99.5080991 C34.9782994,93.1273019 44.0541952,86.9685681 45.4677486,86.7456235 C46.8813019,86.5226789 50.7491372,83.406742 50.7491372,83.406742 C50.7491372,83.406742 53.1300911,81.4028844 49.6333135,80.5868896 C46.1374195,79.7708949 44.6496546,80.9578765 38.9212297,84.0746946 C33.1928049,87.1906314 33.5647461,83.1097763 33.5647461,83.1097763 C38.1031357,75.393074 49.6333135,74.9480661 49.6333135,74.9480661 C47.7736074,72.1282137 43.0867947,71.9792902 41.3021836,70.6442664 C39.5166891,69.3083613 38.475077,69.0854167 38.475077,69.0854167 C32.8208637,69.1603191 29.6969108,66.7114535 29.6969108,66.7114535 C29.6969108,66.7114535 26.8698041,62.7046195 30.068852,61.591659 C33.2670164,60.4786986 37.3592533,62.7786407 40.8551474,65.2275062 C44.3519249,67.6754906 45.9139013,66.9335169 45.9139013,66.9335169 C45.9139013,66.9335169 46.4351491,63.2976697 43.0125831,61.591659 C39.5909006,59.8847671 38.9954413,55.4329252 38.9954413,55.4329252 C38.9954413,55.4329252 39.441594,53.4290676 40.9302424,55.2840017 C42.4180073,57.1389359 44.500348,56.6199068 44.500348,56.6199068 C41.2270886,50.8321598 37.5076764,36.7337791 37.5076764,36.7337791 C37.5076764,36.7337791 39.0666709,32.3410448 30.068852,31.2429978 C21.0710331,30.1449508 21.9728951,30.8920893 18.1658495,31.2429978 C18.1658495,31.2429978 13.8537018,29.3326198 9.24191069,36.7337791 C4.63011961,44.1349384 2.07784573,45.6349525 2.07784573,50.3510225 C2.07784573,60.2297691 -0.655978705,63.4176674 2.07784573,66.7114535 C4.81167017,70.0052396 10.6195898,73.2209299 19.165055,71.9519729 C20.6236654,71.736078 22.3720542,71.3994581 24.5639453,71.4743604 C33.6398411,71.7854254 36.1683346,75.6151374 36.1683346,75.6151374 C27.0836041,77.9600209 21.21029,80.2414577 17.4802762,82.3246237 C17.4802762,82.3246237 5.0147397,84.6815114 6,97 C6.9852603,109.318489 7.78392476,104.936029 9.24191069,108.086619 C10.6074436,111.037868 13.5461507,116.563056 15,119.394227 C16.4538493,122.225398 30.2652391,143.200513 42.5231403,130.553793 Z" id="Stroke-1" stroke="#F9A01E" stroke-width="2" stroke-linejoin="round"></path>
                <path d="M116.752556,81.3849624 C116.752556,81.3849624 113.195622,77.0748653 105.341679,80.3205787 C97.4868561,83.5662921 78.5177144,76.6324671 77.6280409,75.0091724 C76.7392474,73.3867537 79.3325885,72.1322701 80.5918593,72.1322701 C81.8520101,72.1322701 93.7820831,75.5260336 96.9676599,72.6491314 C100.154117,69.7722291 93.3368064,69.8458162 93.3368064,69.8458162 C93.3368064,69.8458162 86.2977377,71.3946478 84.9636674,69.477005 C83.6304771,67.5593622 87.1874112,66.5265157 87.1874112,66.5265157 C87.1874112,66.5265157 96.0049469,65.7888934 95.4118312,60.6991242 C94.8195955,55.609355 88.446682,61.3631595 88.446682,61.3631595 C88.446682,61.3631595 82.7408036,64.5344099 86.0011799,59.0022425 C89.2615561,53.4700751 95.1900728,52.1420045 95.1900728,52.1420045 C95.1900728,52.1420045 101.629866,48.8621257 92.9663291,46.3882 C84.3036722,43.9151504 77.9245988,62.6903541 77.9245988,62.6903541 L77.2575636,64.9776841 C77.2575636,64.9776841 77.2473951,62.5036439 76.3687701,56.8629625 C75.4901451,51.2222812 73.0984902,52.3228221 73.5527906,49.4131523 C73.5527906,49.4131523 76.664448,44.7386242 77.9245988,42.2305331 C79.1838696,39.722442 76.5914085,34.807004 73.5527906,36.8726969 C70.5150528,38.9383898 68.9583441,46.7570112 68.9583441,46.7570112 C68.9583441,46.7570112 68.1434701,52.5108157 66.513722,52.5844027 C65.079325,52.6491342 63.6549945,53.7769596 65,42.2305331 C66.3450055,30.6841067 66.2552221,38.9676609 66.513722,36.8726969 C66.513722,36.8726969 63.771662,31.0453054 58.6588993,36.8726969 C53.5461365,42.7000884 59.1772155,55.3141309 59.6964117,56.1989272 C60.2147279,57.0845997 58.6588993,56.8629625 58.6588993,56.8629625 C58.6588993,56.8629625 41.0898274,31.9493746 53.341978,17.9161538 C53.341978,17.9161538 51.6982362,12.826126 60.1408085,9 C64.4403331,7.05147977 71.3736478,9.56057765 76.3687701,9 C81.3638924,8.43942235 84.045811,4.80254638 88.8197993,5.44052499 C88.8197993,5.44052499 96.0392667,6.69325648 96.8532607,16.3541816 C96.8532607,16.3541816 82.825283,29.9327397 84.5377505,42.0386812 C84.5377505,42.0386812 83.5389578,43.6707363 86.8213339,42.2305331 C90.1037099,40.7903299 97.5246958,26.7509769 109.655407,30.3611213 C120.107587,33.4709736 136.796273,34.991409 133,56.1989272 C132.132988,61.0424073 131.577158,64.3654969 131,66.5265157 C130.422842,68.6875346 128.316384,68.769074 127.06696,72.0455426 C127.06696,72.0455426 126.639144,77.1213643 124,80.3205787 C121.360856,83.5197931 119.634577,84.8954703 116.752556,81.3849624 Z" id="Stroke-3" stroke="#F9A01E" stroke-width="2" stroke-linejoin="round"></path>
                <path d="M110.465259,89.648311 C108.528222,88.3183508 102.274865,85.3090416 92.8904067,85.8893081 C92.8904067,85.8893081 83.5811302,84.178356 79.7822377,80.1867198 C79.7822377,80.1867198 76.5051955,79.2254615 76.8032693,81.6650385 C77.101343,84.1046156 79.484164,85.2870951 81.9421668,86.6916735 C84.4001696,88.0962519 93.2627777,93.5662068 90.5075857,98.8140628 C90.5075857,98.8140628 87.0810643,96.449104 80.5269799,89.648311 C80.5269799,89.648311 75.9842298,87.1349935 74.4947456,88.6870526 C73.0052613,90.2399896 75.5375615,92.6049485 75.5375615,92.6049485 C75.5375615,92.6049485 80.8662429,103.809785 79.7822377,110.251935 C78.6982326,116.694085 76.6589841,113.237109 74.4947456,114 C66.5254742,116.808279 72.1853374,93.1220089 72.1853374,93.1220089 C72.1853374,93.1220089 72.5577085,88.982892 69.6530373,89.426212 C66.7483661,89.8704099 64.9616926,98.2970024 64.9616926,98.2970024 C64.9616926,98.2970024 61.7589477,103.175279 61.3865766,98.1486438 C61.0142056,93.1220089 63.9188768,87.8004125 63.9188768,87.8004125 C63.9188768,87.8004125 64.5884371,84.843775 62.5779871,84.843775 C60.5666527,84.843775 59.7909534,84.9219047 59.2266476,85.8893081 C59.2266476,85.8893081 45.5223312,108.350272 49.8421893,124.020978 C49.8421893,124.020978 49.8050406,125.019106 50.679803,126.47899 C50.679803,126.47899 45.5567303,143.627525 69.6530373,140 C93.7493443,136.372475 86.1410187,137.659711 91.5884347,135.685123 C93.3659979,135.040831 95.0431134,134.384094 96.6243441,133.716502 C100.387231,132.127819 107.726885,130.690191 110.465259,129 C113.203634,127.309809 121.881389,107.196115 117,98.8140628 C110.956535,88.4365579 110.825248,89.8958679 110.465259,89.648311 Z" id="Stroke-5" stroke="#F9A01E" stroke-width="2" stroke-linejoin="round"></path>
                <path d="M63.5910552,75.6826005 C63.5910552,75.6826005 67.9481864,79.4003243 69,74.3450675 C69,74.3450675 68.5485855,71.3707118 61.1867823,65.4237663 C53.8249791,59.4768208 44.8109631,50.4071992 41.6555223,26.6185342 C41.6555223,26.6185342 39.7026639,15.9129728 42.1818752,13.6828682 C42.1818752,13.6828682 43.5343344,12.2702921 44.4353791,14.5745569 C45.3364239,16.8797046 48.2661575,16.8055444 48.9423871,14.8720808 C49.6186167,12.9395 49.9192624,8.2559273 46.3882375,8.03344656 C42.8581048,7.81008296 40.6046008,8.62761139 38.2003279,12.8653398 C38.2003279,12.8653398 34.2187807,9.89186703 32.190984,12.1219716 C30.1622951,14.3520762 28.8098359,18.7381251 31.5147544,20.8199092 C34.2187807,22.9008104 35.7211167,19.5556535 35.7211167,18.8122853 C35.7211167,18.0689171 35.0448871,17.3997092 34.5943647,17.3997092 C34.1438423,17.3997092 31.6646311,15.318808 34.2187807,14.5745569 C36.7729303,13.8311887 37.9746207,14.9471239 37.9746207,17.6230728 C37.9746207,20.2990217 38.2003279,23.4958581 38.2003279,23.4958581 C38.2003279,23.4958581 38.5009736,51.1505673 63.5910552,75.6826005 Z" id="Fill-7" fill="#F9A01D"></path>
                <path d="M33.2301086,4.60435724 C33.2301086,4.60435724 33.6740152,8.36136672 35.9691438,8.95107897 C38.2633935,9.54079121 42.2603104,4.60435724 42.2603104,4.60435724 C42.2603104,4.60435724 44.8507907,0.552491635 40.3361293,0.47899634 C40.3361293,0.47899634 37.8194869,0.62598693 37.1531876,1.80453648 C36.4868883,2.98396098 34.858059,0.47899634 34.858059,0.47899634 C34.858059,0.47899634 33.7478531,-0.77392345 33.2301086,0.772977519 C32.7123642,2.32075343 33.2301086,4.60435724 33.2301086,4.60435724" id="Fill-9" fill="#F9A01D"></path>
            </g>
        </g>
    </g>
</svg>