<?xml version="1.0" encoding="UTF-8"?>
<svg width="117px" height="146px" viewBox="0 0 117 146" version="1.1" xmlns="http://www.w3.org/2000/svg" xmlns:xlink="http://www.w3.org/1999/xlink">
    <!-- Generator: Sketch 41.2 (35397) - http://www.bohemiancoding.com/sketch -->
    <title>Page 1</title>
    <desc>Created with Sketch.</desc>
    <defs></defs>
    <g id="Holiday-Card" stroke="none" stroke-width="1" fill="none" fill-rule="evenodd">
        <g id="Zombie" transform="translate(-662.000000, -1422.000000)" stroke="#2F6A98" stroke-width="2">
            <g id="Page-1" transform="translate(663.000000, 1423.000000)">
                <path d="M40.8869694,133.801539 C13.2101354,126.923657 16.5652227,107.186626 16.5652227,107.186626 C5.42378166,108.701887 -1.1869607,99.7362564 0.517449782,87.9342774 C2.22186026,76.1322983 12.5271659,81.7713784 12.5271659,81.7713784 C12.5271659,81.7713784 -6.89477729,0.250820906 62.6706812,0.250820906 C132.236642,0.250820906 104.672799,81.7713784 104.672799,81.7713784 C104.672799,81.7713784 116.376183,74.9612321 114.820419,91.077692 C113.264655,107.194152 97.8777555,102.267044 97.8777555,102.267044 C97.8777555,102.267044 107.508629,124.444047 77.1084541,134.618877" id="Stroke-1"></path>
                <path d="M37.357976,127.13474 C37.357976,127.13474 43.0025175,143.545723 57.6070153,143.545723 C72.2115131,143.545723 82.5559891,129.209946 82.1652904,126.018866" id="Stroke-3"></path>
                <path d="M19.6992991,84.2045268 C19.6992991,84.2045268 8.03860044,93.0336836 17.5790808,99.0897115 C27.1200633,105.145739 29.7680764,105.922436 30.7739498,113.23884" id="Stroke-5"></path>
                <path d="M96.6950131,83.7304808 C96.6950131,83.7304808 105.47117,87.0821185 95.6836157,95.7396794 C85.8960611,104.39724 92.0121528,107.623944 92.0121528,107.623944" id="Stroke-7"></path>
                <path d="M20.4949083,70.3317575 C20.4949083,70.3317575 24.6836201,53.6864613 39.0992969,59.3591582 L53.5149738,65.0318551" id="Stroke-9"></path>
                <path d="M51.2388275,92.0854913 C51.2388275,92.0854913 46.9552031,99.6698258 49.6996354,100.972348 C52.4445699,102.274871 57.3920808,101.764098 56.7256834,96.4636934 C56.059286,91.1637909 56.5720153,89.3334355 55.0363384,89.4774355 C53.5011638,89.6214355 51.2388275,92.0854913 51.2388275,92.0854913 Z" id="Stroke-11"></path>
                <path d="M65.0910546,92.0854913 C65.0910546,92.0854913 69.374679,99.6698258 66.6302467,100.972348 C63.8853122,102.274871 58.9378013,101.764098 59.6041987,96.4636934 C60.2705961,91.1637909 59.7578668,89.3334355 61.2935437,89.4774355 C62.8292205,89.6214355 65.0910546,92.0854913 65.0910546,92.0854913 Z" id="Stroke-13"></path>
                <path d="M37.6104236,64.8097338 C37.6104236,64.8097338 52.9953144,66.9822774 52.1169956,79.5338592 C51.2386769,92.0854411 39.3047904,90.4367164 39.3047904,90.4367164 C39.3047904,90.4367164 24.8449214,89.4277129 25.202476,78.812354 C25.5600306,68.1964934 28.5178908,65.1684794 37.6104236,64.8097338 Z" id="Stroke-15"></path>
                <path d="M25.2220109,75.595685 C25.2220109,75.595685 31.0860066,68.8723401 46.0505699,68.3013575" id="Stroke-17"></path>
                <path d="M27.0875218,84.8948237 C27.0875218,84.8948237 43.8172598,85.4121199 51.9496179,77.6586983" id="Stroke-19"></path>
                <path d="M77.7145393,64.8097338 C77.7145393,64.8097338 62.3296485,66.9822774 63.2079672,79.5338592 C64.086286,92.0854411 76.0201725,90.4367164 76.0201725,90.4367164 C76.0201725,90.4367164 90.4800415,89.4277129 90.1224869,78.812354 C89.7649323,68.1964934 86.8070721,65.1684794 77.7145393,64.8097338 Z" id="Stroke-21"></path>
                <path d="M90.1030022,75.595685 C90.1030022,75.595685 84.2390066,68.8723401 69.2744432,68.3013575" id="Stroke-23"></path>
                <path d="M88.2374913,84.8948237 C88.2374913,84.8948237 71.5077533,85.4121199 63.3753952,77.6586983" id="Stroke-25"></path>
                <path d="M35.8823603,118.01949 C35.8823603,118.01949 37.0795655,110.052828 43.8379498,109.167253 C50.5963341,108.281678 56.0068581,112.022166 56.0068581,112.022166 C56.0068581,112.022166 59.8139105,114.711002 67.5736485,111.51641 C75.3338886,108.322319 77.1573166,107.559671 79.6888231,108.432201 C82.2203297,109.30473 86.7470109,113.288563 83.7555044,118.631114 C80.7639978,123.973664 72.150548,122.952619 70.8775131,121.644577 C69.603976,120.336535 53.9057227,116.513762 49.4608974,119.182026 C45.0160721,121.850291 35.3194127,125.426709 35.8823603,118.01949 Z" id="Stroke-27"></path>
                <path d="M41.2474367,109.948064 L41.2157991,121.735994" id="Stroke-29"></path>
                <path d="M53.1193537,111.027311 L53.4201616,117.608162" id="Stroke-31"></path>
                <path d="M67,111.51661 L67,119.714576" id="Stroke-33"></path>
                <path d="M76,109.055314 L76,121.735844" id="Stroke-35"></path>
                <path d="M14.5981703,29.8950523 L21.2566201,43.4566411 C21.2566201,43.4566411 43.1955066,21.0172265 51.9495677,18.5827735 C51.9495677,18.5827735 47.4635633,3.01672474 43.3541965,2.82405575" id="Stroke-37"></path>
                <path d="M14.7094039,36.8746871 L19.5183122,32.0700042" id="Stroke-39"></path>
                <path d="M16.9887642,41.4388348 L22.4048122,36.0275456" id="Stroke-41"></path>
                <path d="M25.4806856,34.4723958 L30.4256856,41.438584" id="Stroke-43"></path>
                <path d="M30.8414432,27.489901 L36.6200677,36.0275456" id="Stroke-45"></path>
                <path d="M39.0992467,21.8952251 L44.2551638,29.5096641" id="Stroke-47"></path>
                <path d="M46.0216943,18.0498732 L49.4611485,24.6934411" id="Stroke-49"></path>
                <path d="M44.2248821,6.56509547 L51.491476,4.60579233" id="Stroke-51"></path>
                <path d="M46.0505197,13.2611456 C46.9253231,13.0739958 54.4585764,10.8653268 54.4585764,10.8653268" id="Stroke-53"></path>
                <path d="M95.2184432,70.289862 C95.2184432,70.289862 91.0297314,53.6445659 76.6140546,59.3172627 L62.1983777,64.9899596" id="Stroke-55"></path>
            </g>
        </g>
    </g>
</svg>